<?xml version="1.0" encoding="UTF-8" standalone="no"?>
<!-- Created with Inkscape (http://www.inkscape.org/) -->

<svg
   xmlns:dc="http://purl.org/dc/elements/1.1/"
   xmlns:cc="http://creativecommons.org/ns#"
   xmlns:rdf="http://www.w3.org/1999/02/22-rdf-syntax-ns#"
   xmlns:svg="http://www.w3.org/2000/svg"
   xmlns="http://www.w3.org/2000/svg"
   xmlns:sodipodi="http://sodipodi.sourceforge.net/DTD/sodipodi-0.dtd"
   xmlns:inkscape="http://www.inkscape.org/namespaces/inkscape"
   width="560"
   height="560"
   viewBox="0 0 148.16666 148.16667"
   version="1.1"
   id="svg5084"
   inkscape:version="0.92pre2 r"
   sodipodi:docname="logo_compact.svg">
  <defs
     id="defs5078" />
  <sodipodi:namedview
     id="base"
     pagecolor="#ffffff"
     bordercolor="#666666"
     borderopacity="1.0"
     inkscape:pageopacity="0.0"
     inkscape:pageshadow="2"
     inkscape:zoom="1"
     inkscape:cx="280"
     inkscape:cy="280"
     inkscape:document-units="px"
     inkscape:current-layer="layer1"
     showgrid="false"
     units="px"
     inkscape:window-width="1920"
     inkscape:window-height="1017"
     inkscape:window-x="0"
     inkscape:window-y="0"
     inkscape:window-maximized="1" />
  <metadata
     id="metadata5081">
    <rdf:RDF>
      <cc:Work
         rdf:about="">
        <dc:format>image/svg+xml</dc:format>
        <dc:type
           rdf:resource="http://purl.org/dc/dcmitype/StillImage" />
        <dc:title></dc:title>
      </cc:Work>
    </rdf:RDF>
  </metadata>
  <g
     inkscape:label="Layer 1"
     inkscape:groupmode="layer"
     id="layer1"
     transform="translate(0,-148.83332)">
    <g
       id="g6155"
       transform="translate(6.3499995,-6.3499975)">
      <g
         id="g6101">
        <path
           d="M 66.004068,263.63726 55.081085,257.33235 V 244.9214 c 0.390465,-0.15691 0.76907,-0.33481 1.137639,-0.55103 5.997469,-3.48681 6.626957,-13.60606 1.398558,-22.60773 -5.226574,-8.99803 -14.329516,-13.47104 -20.329721,-9.98697 -6.00203,3.48317 -6.628781,13.60789 -1.400382,22.60865 0.769982,1.32375 1.622983,2.54533 2.536197,3.66107 v 9.67404 l -12.708357,-7.33672 v -46.55474 l -4.654561,-2.68673 c -3.975808,7.43161 -6.265685,15.9005 -6.265685,24.91678 0,28.65355 22.772864,51.97836 51.20747,52.89614 v -5.3169 z"
           id="path38"
           inkscape:connector-curvature="0"
           style="fill:#229567;stroke-width:0.91230124" />
        <path
           d="m 114.41625,191.15767 -4.66369,2.69493 v 14.72455 l -8.75991,4.9693 c -0.63862,-0.74352 -1.380316,-1.38213 -2.239704,-1.88116 -6.000205,-3.48499 -15.104972,0.98802 -20.332458,9.98513 -5.224749,9.00259 -4.601648,19.12275 1.396733,22.60957 6.002942,3.48316 15.10406,-0.98711 20.332459,-9.98788 1.12943,-1.94411 1.98517,-3.93932 2.57086,-5.91171 l 7.03111,-4.0716 v 16.09391 l -40.216064,23.21806 v 5.35065 c 28.403587,-0.95153 51.136314,-24.26265 51.136314,-52.89432 0.002,-9.0108 -2.28349,-17.47513 -6.25565,-24.89943 z"
           id="path40"
           inkscape:connector-curvature="0"
           style="fill:#163c64;stroke-width:0.91230124" />
        <path
           d="m 27.549657,190.80552 12.540493,-7.23911 8.036462,4.65456 c -0.287375,0.87307 -0.440641,1.77899 -0.440641,2.70953 0,6.93805 8.436049,12.56239 18.846319,12.56239 10.407533,0 18.845407,-5.62434 18.845407,-12.56239 0,-6.9417 -8.437874,-12.5633 -18.845407,-12.5633 -2.321807,0 -4.545997,0.28008 -6.601412,0.7937 l -6.153472,-3.49685 13.960946,-8.05744 40.204208,23.20986 c 1.73884,-1.00445 3.32351,-1.91949 4.70565,-2.71775 -9.34653,-14.98455 -25.944027,-24.9779 -44.909858,-24.9779 -18.959444,0 -35.556029,9.98697 -44.905292,24.96422 1.418628,0.81742 2.999646,1.72789 4.716597,2.72048 z"
           id="path42"
           inkscape:connector-curvature="0"
           style="fill:#c52128;stroke-width:0.91230124" />
      </g>
      <g
         id="g6096">
        <g
           id="g6047">
          <path
             d="M 42.446901,294.13189 H 31.497912 c 0.672835,0.56383 1.45124,0.98663 2.275946,1.28059 h 6.391276 c 0.827352,-0.29422 1.607344,-0.71676 2.281767,-1.28059"
             id="path2538_2_"
             style="fill:#143d69;stroke-width:0.26458332"
             inkscape:connector-curvature="0" />
          <path
             d="m 29.298695,278.59979 h 4.530725 v -1.28058 h -4.530725 z"
             id="path2582_2_"
             style="fill:#143d69;stroke-width:0.26458332"
             inkscape:connector-curvature="0" />
          <path
             d="m 29.298695,280.46722 h 4.530725 v -1.28005 h -4.530725 z"
             id="path2584_2_"
             style="fill:#143d69;stroke-width:0.26458332"
             inkscape:connector-curvature="0" />
          <path
             d="m 29.298695,282.33545 h 4.530725 v -1.28006 h -4.530725 z"
             id="path2586_2_"
             style="fill:#143d69;stroke-width:0.26458332"
             inkscape:connector-curvature="0" />
          <path
             d="m 29.298695,284.20341 h 4.530725 v -1.28006 h -4.530725 z"
             id="path2588_2_"
             style="fill:#143d69;stroke-width:0.26458332"
             inkscape:connector-curvature="0" />
          <path
             d="m 29.298695,286.07163 h 4.530725 v -1.28006 h -4.530725 z"
             id="path2590_2_"
             style="fill:#143d69;stroke-width:0.26458332"
             inkscape:connector-curvature="0" />
          <path
             d="m 29.298695,287.93959 h 4.530725 v -1.28006 h -4.530725 z"
             id="path2592_2_"
             style="fill:#143d69;stroke-width:0.26458332"
             inkscape:connector-curvature="0" />
          <path
             d="m 29.335208,289.80781 h 4.579408 c -0.05741,-0.33126 -0.08467,-0.6858 -0.08467,-1.05833 v -0.22172 h -4.53099 v 0.60298 c -2.65e-4,0.23522 0.01746,0.45588 0.03625,0.67707"
             id="path2594_2_"
             style="fill:#143d69;stroke-width:0.26458332"
             inkscape:connector-curvature="0" />
          <path
             d="m 29.74002,291.67524 h 5.167577 c -0.402431,-0.32147 -0.67601,-0.75936 -0.846666,-1.27979 h -4.651375 c 0.07435,0.45614 0.181504,0.88609 0.330464,1.27979"
             id="path2596_2_"
             style="fill:#143d69;stroke-width:0.26458332"
             inkscape:connector-curvature="0" />
          <path
             d="M 43.949734,292.26367 H 29.996666 c 0.243417,0.47863 0.543454,0.90276 0.885032,1.28005 h 12.183534 c 0.341048,-0.37729 0.642144,-0.80142 0.884502,-1.28005"
             id="path2598_2_"
             style="fill:#143d69;stroke-width:0.26458332"
             inkscape:connector-curvature="0" />
          <path
             d="m 44.538432,290.39492 h -4.652434 c -0.17145,0.52096 -0.447145,0.95832 -0.851693,1.28032 h 5.172604 c 0.149225,-0.3937 0.256381,-0.82365 0.331523,-1.28032"
             id="path2600_2_"
             style="fill:#143d69;stroke-width:0.26458332"
             inkscape:connector-curvature="0" />
          <path
             d="m 40.117509,278.59979 h 4.530989 v -1.28058 h -4.530989 z"
             id="path2602_2_"
             style="fill:#143d69;stroke-width:0.26458332"
             inkscape:connector-curvature="0" />
          <path
             d="m 40.117509,280.46722 h 4.530989 v -1.28005 h -4.530989 z"
             id="path2604_2_"
             style="fill:#143d69;stroke-width:0.26458332"
             inkscape:connector-curvature="0" />
          <path
             d="m 40.117509,282.33545 h 4.530989 v -1.28006 h -4.530989 z"
             id="path2606_2_"
             style="fill:#143d69;stroke-width:0.26458332"
             inkscape:connector-curvature="0" />
          <path
             d="m 40.117509,284.20341 h 4.530989 v -1.28006 h -4.530989 z"
             id="path2608_2_"
             style="fill:#143d69;stroke-width:0.26458332"
             inkscape:connector-curvature="0" />
          <path
             d="m 40.117509,286.07163 h 4.530989 v -1.28006 h -4.530989 z"
             id="path2610_2_"
             style="fill:#143d69;stroke-width:0.26458332"
             inkscape:connector-curvature="0" />
          <path
             d="m 40.117509,287.93959 h 4.530989 v -1.28006 h -4.530989 z"
             id="path2612_2_"
             style="fill:#143d69;stroke-width:0.26458332"
             inkscape:connector-curvature="0" />
          <path
             d="m 44.648763,289.13074 v -0.60298 h -4.531254 v 0.22225 c 0,0.372 -0.02752,0.72601 -0.08467,1.0578 h 4.579409 c 0.01852,-0.22066 0.03651,-0.44185 0.03651,-0.67707"
             id="path2614_2_"
             style="fill:#143d69;stroke-width:0.26458332"
             inkscape:connector-curvature="0" />
          <path
             d="m 11.978013,293.54372 h 4.745567 l 0.0077,-0.0233 h -0.01349 l 0.392906,-1.2573 h -4.659842 l -0.47281,1.28059"
             id="path2540_2_"
             style="fill:#143d69;stroke-width:0.26458332"
             inkscape:connector-curvature="0" />
          <path
             d="m 11.760525,294.13189 -0.472281,1.28059 h 4.834467 l 0.411956,-1.28059 h -4.774142"
             id="path2542_2_"
             style="fill:#143d69;stroke-width:0.26458332"
             inkscape:connector-curvature="0" />
          <path
             d="m 1.959036,295.41248 h 4.530989 v -1.28059 H 1.959036 Z"
             id="path2544_2_"
             style="fill:#143d69;stroke-width:0.26458332"
             inkscape:connector-curvature="0" />
          <path
             d="m 1.959036,293.54372 h 4.530989 v -1.28005 H 1.959036 Z"
             id="path2546_2_"
             style="fill:#143d69;stroke-width:0.26458332"
             inkscape:connector-curvature="0" />
          <path
             d="m 1.959036,291.67524 h 4.530989 v -1.27979 H 1.959036 Z"
             id="path2548_2_"
             style="fill:#143d69;stroke-width:0.26458332"
             inkscape:connector-curvature="0" />
          <path
             d="m 1.959036,289.80781 h 4.530989 v -1.28005 H 1.959036 Z"
             id="path2550_2_"
             style="fill:#143d69;stroke-width:0.26458332"
             inkscape:connector-curvature="0" />
          <path
             d="m 1.959036,284.20341 h 4.530989 v -1.28006 H 1.959036 Z"
             id="path2552_2_"
             style="fill:#143d69;stroke-width:0.26458332"
             inkscape:connector-curvature="0" />
          <path
             d="m 1.959036,282.33545 h 4.530989 v -1.28006 H 1.959036 Z"
             id="path2554_2_"
             style="fill:#143d69;stroke-width:0.26458332"
             inkscape:connector-curvature="0" />
          <path
             d="m 1.959036,278.59979 h 13.848027 v -1.28058 H 1.959036 Z"
             id="path2556_2_"
             style="fill:#143d69;stroke-width:0.26458332"
             inkscape:connector-curvature="0" />
          <path
             d="m 1.959036,280.46722 h 13.848027 v -1.28005 H 1.959036 Z"
             id="path2558_2_"
             style="fill:#143d69;stroke-width:0.26458332"
             inkscape:connector-curvature="0" />
          <path
             d="M 19.987214,282.92335 H 15.90099 l -0.473075,1.28006 h 4.175389 l 0.38391,-1.28006"
             id="path2560_2_"
             style="fill:#143d69;stroke-width:0.26458332"
             inkscape:connector-curvature="0" />
          <path
             d="m 17.498015,278.59979 h 5.640387 l -0.483659,-1.28058 H 17.97109 l -0.473075,1.28058"
             id="path2562_2_"
             style="fill:#143d69;stroke-width:0.26458332"
             inkscape:connector-curvature="0" />
          <path
             d="m 16.807982,280.46722 h 7.036328 l -0.483923,-1.28005 h -6.079859 l -0.472546,1.28005"
             id="path2564_2_"
             style="fill:#143d69;stroke-width:0.26458332"
             inkscape:connector-curvature="0" />
          <path
             d="m 20.564535,282.33545 h 3.985419 l -0.483659,-1.28006 h -7.475536 l -0.472811,1.28006 h 4.044949 l 0.175419,-0.58658 h 0.05054 l 0.175683,0.58658"
             id="path2566_2_"
             style="fill:#143d69;stroke-width:0.26458332"
             inkscape:connector-curvature="0" />
          <path
             d="m 21.124129,284.20341 h 4.131468 l -0.483393,-1.28006 h -4.031192 l 0.383117,1.28006"
             id="path2568_2_"
             style="fill:#143d69;stroke-width:0.26458332"
             inkscape:connector-curvature="0" />
          <path
             d="m 21.682929,286.07163 h 4.278577 l -0.483394,-1.28006 h -4.177771 l 0.382588,1.28006"
             id="path2570_2_"
             style="fill:#143d69;stroke-width:0.26458332"
             inkscape:connector-curvature="0" />
          <path
             d="m 22.242258,287.93959 h 4.425156 L 26.183491,286.659 h -4.324879 l 0.383646,1.28059"
             id="path2572_2_"
             style="fill:#143d69;stroke-width:0.26458332"
             inkscape:connector-curvature="0" />
          <path
             d="m 13.357815,289.80781 h 14.014978 l -0.483658,-1.28005 H 13.83089 l -0.473075,1.28005"
             id="path2574_2_"
             style="fill:#143d69;stroke-width:0.26458332"
             inkscape:connector-curvature="0" />
          <path
             d="m 12.668046,291.67524 h 15.410656 l -0.483923,-1.27979 H 13.140592 l -0.472546,1.27979"
             id="path2576_2_"
             style="fill:#143d69;stroke-width:0.26458332"
             inkscape:connector-curvature="0" />
          <path
             d="m 24.043012,293.54372 h 4.742127 l -0.484187,-1.28005 h -4.675717 l 0.417777,1.28005"
             id="path2578_2_"
             style="fill:#143d69;stroke-width:0.26458332"
             inkscape:connector-curvature="0" />
          <path
             d="m 29.490254,295.41248 -0.483394,-1.28059 h -4.788429 l 0.411427,1.28059 h 4.860396"
             id="path2580_2_"
             style="fill:#143d69;stroke-width:0.26458332"
             inkscape:connector-curvature="0" />
          <path
             d="m 1.959036,286.66535 v 1.27953 h 16.526403 l 0.383117,-1.27953 H 1.959036"
             id="path2616_2_"
             style="fill:#143d69;stroke-width:0.26458332"
             inkscape:connector-curvature="0" />
          <path
             d="m 1.959036,284.78628 v 1.28006 h 17.085468 l 0.382852,-1.28006 H 1.959036"
             id="path2618_2_"
             style="fill:#143d69;stroke-width:0.26458332"
             inkscape:connector-curvature="0" />
        </g>
        <g
           id="g6004">
          <path
             id="path13"
             d="m 105.20171,295.40824 2.13519,-5.67795 h 8.24071 l 2.08519,5.67795 h 1.75842 l -6.9342,-18.08903 h -1.93437 l -6.53759,16.63197 h -9.230261 v -16.63197 h -1.70868 v 18.08903 z m 2.71304,-7.13554 3.54224,-9.49616 3.54277,9.49616 z"
             style="fill:#143d69;stroke-width:0.26458332"
             inkscape:connector-curvature="0" />
          <path
             id="path56"
             d="m 89.988438,279.24564 c 0.553244,0.76941 0.830527,1.68963 0.830527,2.76119 0,1.10517 -0.279664,1.99258 -0.837935,2.6633 -0.311944,0.3765 -0.772054,0.71993 -1.379538,1.03082 0.922867,0.33575 1.619515,0.8673 2.089415,1.59543 0.469635,0.72814 0.704585,1.61185 0.704585,2.65113 0,1.07156 -0.268287,2.03279 -0.805391,2.88343 -0.341577,0.56462 -0.76888,1.03902 -1.281113,1.42372 -0.57785,0.44186 -1.258887,0.74427 -2.043641,0.90858 -0.785548,0.16325 -1.637242,0.245 -2.556405,0.245 h -8.150489 v -18.08903 h 8.741569 c 2.206095,0.0328 3.768989,0.67495 4.688416,1.92643 z m -9.821862,1.2147 v 3.9886 h 4.396581 c 0.785283,0 1.422929,-0.14896 1.912673,-0.44741 0.489744,-0.29845 0.734483,-0.82868 0.734483,-1.58935 0,-0.8427 -0.32385,-1.39939 -0.97155,-1.66926 -0.558535,-0.18812 -1.271323,-0.28258 -2.137569,-0.28258 z m 0,6.98342 v 4.82282 h 4.392083 c 0.78396,0 1.394619,-0.1061 1.831446,-0.31909 0.792427,-0.39237 1.189037,-1.14511 1.189037,-2.25795 0,-0.94059 -0.384439,-1.58723 -1.15226,-1.93887 -0.429154,-0.19632 -1.031346,-0.29845 -1.807633,-0.30665 h -4.452673 z"
             inkscape:connector-curvature="0"
             style="fill:#143d69;stroke-width:0.26458332" />
          <path
             id="path62"
             d="m 68.900089,277.35467 h -4.67334 l -2.75219,7.45066 h -8.70373 v -4.30979 h 9.29692 v -3.14087 h -13.81839 v 18.05384 h 4.52147 v -7.45675 l 7.54062,0.004 -2.75272,7.45304 h 4.82388 l 1.14459,-3.7293 h 6.20103 l 1.143,3.7293 h 4.84955 z m -4.31403,11.18446 2.02353,-6.76486 2.08333,6.76486 z"
             style="fill:#143d69;stroke-width:0.26458332"
             inkscape:connector-curvature="0" />
          <path
             id="path64"
             d="m 120.21788,295.40824 v -18.08903 h 6.53203 c 1.05489,0 1.95924,0.10954 2.71304,0.32676 0.75406,0.21775 1.36948,0.52758 1.84652,0.92948 0.47758,0.4019 0.82471,0.88318 1.04246,1.44463 0.21749,0.56118 0.3265,1.17687 0.3265,1.84653 0,0.63711 -0.0836,1.18533 -0.25109,1.64597 -0.16748,0.46064 -0.38576,0.84561 -0.65299,1.15517 -0.26829,0.31009 -0.57415,0.55298 -0.91758,0.72866 -0.34316,0.17595 -0.69956,0.29739 -1.06733,0.36407 v 0.0503 c 1.25598,0.18468 2.18943,0.67839 2.80141,1.48246 0.61093,0.80407 0.91678,1.80869 0.91678,3.01493 0,0.93768 -0.14684,1.73354 -0.43973,2.3868 -0.2929,0.65299 -0.69983,1.18057 -1.21815,1.58247 -0.51937,0.4019 -1.14326,0.69083 -1.87192,0.86651 -0.7284,0.17648 -1.51977,0.26406 -2.37411,0.26406 h -7.38584 z m 1.70815,-10.09941 h 4.32117 c 0.88741,0 1.63327,-0.0757 2.236,-0.22648 0.60298,-0.15055 1.08876,-0.37253 1.45732,-0.66569 0.3683,-0.29289 0.63209,-0.65299 0.7911,-1.08029 0.15928,-0.42678 0.23866,-0.91652 0.23866,-1.4695 0,-0.56885 -0.0921,-1.05093 -0.27623,-1.44463 -0.18468,-0.39317 -0.4773,-0.71146 -0.87947,-0.95435 -0.40217,-0.24262 -0.92551,-0.41857 -1.5703,-0.5281 -0.64506,-0.10901 -1.43643,-0.16299 -2.37384,-0.16299 h -3.94468 v 6.53203 z m 0,8.64182 h 4.34657 c 0.93769,0 1.75419,-0.0415 2.44925,-0.12567 0.6948,-0.0833 1.26894,-0.25533 1.72111,-0.51462 0.45244,-0.25955 0.79111,-0.62812 1.01786,-1.10543 0.22595,-0.47783 0.33893,-1.10939 0.33893,-1.89679 0,-0.7538 -0.12594,-1.36128 -0.3773,-1.82192 -0.25082,-0.45985 -0.61119,-0.81651 -1.07976,-1.06733 -0.46911,-0.25162 -1.03029,-0.42281 -1.68328,-0.51515 -0.65326,-0.0918 -1.38192,-0.13785 -2.18599,-0.13785 h -4.54739 z"
             style="fill:#143d69;stroke-width:0.26458332"
             inkscape:connector-curvature="0" />
        </g>
      </g>
    </g>
  </g>
</svg>
