<?xml version="1.0" encoding="UTF-8" standalone="no"?>
<!-- Generator: Adobe Illustrator 15.0.0, SVG Export Plug-In . SVG Version: 6.00 Build 0)  -->

<svg
   xmlns:dc="http://purl.org/dc/elements/1.1/"
   xmlns:cc="http://creativecommons.org/ns#"
   xmlns:rdf="http://www.w3.org/1999/02/22-rdf-syntax-ns#"
   xmlns:svg="http://www.w3.org/2000/svg"
   xmlns="http://www.w3.org/2000/svg"
   xmlns:sodipodi="http://sodipodi.sourceforge.net/DTD/sodipodi-0.dtd"
   xmlns:inkscape="http://www.inkscape.org/namespaces/inkscape"
   version="1.0"
   id="Layer_1"
   x="0px"
   y="0px"
   width="710"
   height="140"
   viewBox="0 0 710.00003 140"
   enable-background="new 0 0 708.66 141.73"
   xml:space="preserve"
   sodipodi:docname="logo_whitebg.svg"
   inkscape:version="0.92pre2 r"><metadata
     id="metadata64"><rdf:RDF><cc:Work
         rdf:about=""><dc:format>image/svg+xml</dc:format><dc:type
           rdf:resource="http://purl.org/dc/dcmitype/StillImage" /><dc:title></dc:title></cc:Work></rdf:RDF></metadata><defs
     id="defs62" /><sodipodi:namedview
     pagecolor="#ffffff"
     bordercolor="#666666"
     borderopacity="1"
     objecttolerance="10"
     gridtolerance="10"
     guidetolerance="10"
     inkscape:pageopacity="0"
     inkscape:pageshadow="2"
     inkscape:window-width="1920"
     inkscape:window-height="1017"
     id="namedview60"
     showgrid="false"
     inkscape:zoom="1.4901364"
     inkscape:cx="408.46108"
     inkscape:cy="6.7554779"
     inkscape:window-x="0"
     inkscape:window-y="0"
     inkscape:window-maximized="1"
     inkscape:current-layer="Layer_1" /><rect
     style="color:#000000;clip-rule:nonzero;display:inline;overflow:visible;visibility:visible;opacity:1;isolation:auto;mix-blend-mode:normal;color-interpolation:sRGB;color-interpolation-filters:linearRGB;solid-color:#000000;solid-opacity:1;fill:#ffffff;fill-opacity:1;fill-rule:nonzero;stroke:none;stroke-width:4.42819929;stroke-linecap:butt;stroke-linejoin:miter;stroke-miterlimit:4;stroke-dasharray:none;stroke-dashoffset:0;stroke-opacity:1;color-rendering:auto;image-rendering:auto;shape-rendering:auto;text-rendering:auto;enable-background:accumulate"
     id="rect4526"
     width="710"
     height="140"
     x="0"
     y="0" /><path
     d="m 562.293,103.0665 8.07,-21.46 h 31.146 l 7.881,21.46 h 6.646 l -26.208,-68.368 h -7.311 l -24.709,62.861 h -34.886 v -62.861 h -6.458 v 68.368 z m 10.254,-26.969 13.388,-35.891 13.39,35.891 z"
     id="path2"
     inkscape:connector-curvature="0"
     style="fill:#143d69" /><path
     id="path2538_2_"
     d="m 193.749,98.2425 h -41.382 c 2.543,2.131 5.485,3.729 8.602,4.84 h 24.156 c 3.127,-1.112 6.075,-2.709 8.624,-4.84"
     inkscape:connector-curvature="0"
     style="fill:#143d69" /><path
     id="path2582_2_"
     d="m 144.055,39.5385 h 17.124 v -4.84 h -17.124 z"
     inkscape:connector-curvature="0"
     style="fill:#143d69" /><path
     id="path2584_2_"
     d="m 144.055,46.5965 h 17.124 v -4.838 h -17.124 z"
     inkscape:connector-curvature="0"
     style="fill:#143d69" /><path
     id="path2586_2_"
     d="m 144.055,53.6575 h 17.124 v -4.838 h -17.124 z"
     inkscape:connector-curvature="0"
     style="fill:#143d69" /><path
     id="path2588_2_"
     d="m 144.055,60.7175 h 17.124 v -4.838 h -17.124 z"
     inkscape:connector-curvature="0"
     style="fill:#143d69" /><path
     id="path2590_2_"
     d="m 144.055,67.7785 h 17.124 v -4.838 h -17.124 z"
     inkscape:connector-curvature="0"
     style="fill:#143d69" /><path
     id="path2592_2_"
     d="m 144.055,74.8385 h 17.124 v -4.838 h -17.124 z"
     inkscape:connector-curvature="0"
     style="fill:#143d69" /><path
     id="path2594_2_"
     d="m 144.193,81.8995 h 17.308 c -0.217,-1.252 -0.32,-2.592 -0.32,-4 v -0.838 h -17.125 v 2.279 c -0.001,0.889 0.066,1.723 0.137,2.559"
     inkscape:connector-curvature="0"
     style="fill:#143d69" /><path
     id="path2596_2_"
     d="m 145.723,88.9575 h 19.531 c -1.521,-1.215 -2.555,-2.87 -3.2,-4.837 h -17.58 c 0.281,1.724 0.686,3.349 1.249,4.837"
     inkscape:connector-curvature="0"
     style="fill:#143d69" /><path
     id="path2598_2_"
     d="m 199.429,91.1815 h -52.736 c 0.92,1.809 2.054,3.412 3.345,4.838 h 46.048 c 1.289,-1.426 2.427,-3.029 3.343,-4.838"
     inkscape:connector-curvature="0"
     style="fill:#143d69" /><path
     id="path2600_2_"
     d="M 201.654,84.1185 H 184.07 c -0.648,1.969 -1.69,3.622 -3.219,4.839 h 19.55 c 0.564,-1.488 0.969,-3.113 1.253,-4.839"
     inkscape:connector-curvature="0"
     style="fill:#143d69" /><path
     id="path2602_2_"
     d="m 184.945,39.5385 h 17.125 v -4.84 h -17.125 z"
     inkscape:connector-curvature="0"
     style="fill:#143d69" /><path
     id="path2604_2_"
     d="m 184.945,46.5965 h 17.125 v -4.838 h -17.125 z"
     inkscape:connector-curvature="0"
     style="fill:#143d69" /><path
     id="path2606_2_"
     d="m 184.945,53.6575 h 17.125 v -4.838 h -17.125 z"
     inkscape:connector-curvature="0"
     style="fill:#143d69" /><path
     id="path2608_2_"
     d="m 184.945,60.7175 h 17.125 v -4.838 h -17.125 z"
     inkscape:connector-curvature="0"
     style="fill:#143d69" /><path
     id="path2610_2_"
     d="m 184.945,67.7785 h 17.125 v -4.838 h -17.125 z"
     inkscape:connector-curvature="0"
     style="fill:#143d69" /><path
     id="path2612_2_"
     d="m 184.945,74.8385 h 17.125 v -4.838 h -17.125 z"
     inkscape:connector-curvature="0"
     style="fill:#143d69" /><path
     id="path2614_2_"
     d="m 202.071,79.3405 v -2.279 h -17.126 v 0.84 c 0,1.406 -0.104,2.744 -0.32,3.998 h 17.308 c 0.07,-0.834 0.138,-1.67 0.138,-2.559"
     inkscape:connector-curvature="0"
     style="fill:#143d69" /><path
     id="path2540_2_"
     d="m 78.591,96.0195 h 17.936 l 0.029,-0.088 h -0.051 l 1.485,-4.752 H 80.378 l -1.787,4.84"
     inkscape:connector-curvature="0"
     style="fill:#143d69" /><path
     id="path2542_2_"
     d="m 77.769,98.2425 -1.785,4.84 h 18.272 l 1.557,-4.84 H 77.769"
     inkscape:connector-curvature="0"
     style="fill:#143d69" /><path
     id="path2544_2_"
     d="m 40.724,103.0825 h 17.125 v -4.84 H 40.724 Z"
     inkscape:connector-curvature="0"
     style="fill:#143d69" /><path
     id="path2546_2_"
     d="m 40.724,96.0195 h 17.125 v -4.838 H 40.724 Z"
     inkscape:connector-curvature="0"
     style="fill:#143d69" /><path
     id="path2548_2_"
     d="m 40.724,88.9575 h 17.125 v -4.837 H 40.724 Z"
     inkscape:connector-curvature="0"
     style="fill:#143d69" /><path
     id="path2550_2_"
     d="m 40.724,81.8995 h 17.125 v -4.838 H 40.724 Z"
     inkscape:connector-curvature="0"
     style="fill:#143d69" /><path
     id="path2552_2_"
     d="m 40.724,60.7175 h 17.125 v -4.838 H 40.724 Z"
     inkscape:connector-curvature="0"
     style="fill:#143d69" /><path
     id="path2554_2_"
     d="m 40.724,53.6575 h 17.125 v -4.838 H 40.724 Z"
     inkscape:connector-curvature="0"
     style="fill:#143d69" /><path
     id="path2556_2_"
     d="m 40.724,39.5385 h 52.339 v -4.84 H 40.724 Z"
     inkscape:connector-curvature="0"
     style="fill:#143d69" /><path
     id="path2558_2_"
     d="m 40.724,46.5965 h 52.339 v -4.838 H 40.724 Z"
     inkscape:connector-curvature="0"
     style="fill:#143d69" /><path
     id="path2560_2_"
     d="M 108.862,55.8795 H 93.418 l -1.788,4.838 h 15.781 l 1.451,-4.838"
     inkscape:connector-curvature="0"
     style="fill:#143d69" /><path
     id="path2562_2_"
     d="m 99.454,39.5385 h 21.318 l -1.828,-4.84 h -17.702 l -1.788,4.84"
     inkscape:connector-curvature="0"
     style="fill:#143d69" /><path
     id="path2564_2_"
     d="m 96.846,46.5965 h 26.594 l -1.829,-4.838 H 98.632 l -1.786,4.838"
     inkscape:connector-curvature="0"
     style="fill:#143d69" /><path
     id="path2566_2_"
     d="m 111.044,53.6575 h 15.063 l -1.828,-4.838 H 96.025 l -1.787,4.838 h 15.288 l 0.663,-2.217 h 0.191 l 0.664,2.217"
     inkscape:connector-curvature="0"
     style="fill:#143d69" /><path
     id="path2568_2_"
     d="m 113.159,60.7175 h 15.615 l -1.827,-4.838 h -15.236 l 1.448,4.838"
     inkscape:connector-curvature="0"
     style="fill:#143d69" /><path
     id="path2570_2_"
     d="m 115.271,67.7785 h 16.171 l -1.827,-4.838 h -15.79 l 1.446,4.838"
     inkscape:connector-curvature="0"
     style="fill:#143d69" /><path
     id="path2572_2_"
     d="m 117.385,74.8385 h 16.725 l -1.829,-4.84 h -16.346 l 1.45,4.84"
     inkscape:connector-curvature="0"
     style="fill:#143d69" /><path
     id="path2574_2_"
     d="m 83.806,81.8995 h 52.97 l -1.828,-4.838 H 85.594 l -1.788,4.838"
     inkscape:connector-curvature="0"
     style="fill:#143d69" /><path
     id="path2576_2_"
     d="m 81.199,88.9575 h 58.245 l -1.829,-4.837 h -54.63 l -1.786,4.837"
     inkscape:connector-curvature="0"
     style="fill:#143d69" /><path
     id="path2578_2_"
     d="m 124.191,96.0195 h 17.923 l -1.83,-4.838 h -17.672 l 1.579,4.838"
     inkscape:connector-curvature="0"
     style="fill:#143d69" /><path
     id="path2580_2_"
     d="m 144.779,103.0825 -1.827,-4.84 h -18.098 l 1.555,4.84 h 18.37"
     inkscape:connector-curvature="0"
     style="fill:#143d69" /><path
     id="path2616_2_"
     d="m 40.724,70.0225 v 4.836 h 62.462 l 1.448,-4.836 h -63.91"
     inkscape:connector-curvature="0"
     style="fill:#143d69" /><path
     id="path2618_2_"
     d="m 40.724,62.9205 v 4.838 h 64.575 l 1.447,-4.838 H 40.724"
     inkscape:connector-curvature="0"
     style="fill:#143d69" /><g
     id="g49"
     transform="translate(0.568,-1.3935)"><g
       id="g47"><path
         d="m 504.226,43.373 c 2.091,2.908 3.139,6.386 3.139,10.436 0,4.177 -1.057,7.531 -3.167,10.066 -1.179,1.423 -2.918,2.721 -5.214,3.896 3.488,1.269 6.121,3.278 7.897,6.03 1.775,2.752 2.663,6.092 2.663,10.02 0,4.05 -1.014,7.683 -3.044,10.898 -1.291,2.134 -2.906,3.927 -4.842,5.381 -2.184,1.67 -4.758,2.813 -7.724,3.434 -2.969,0.617 -6.188,0.926 -9.662,0.926 H 453.467 V 36.092 h 33.039 c 8.338,0.124 14.245,2.551 17.72,7.281 z m -37.122,4.591 v 15.075 h 16.617 c 2.968,0 5.378,-0.563 7.229,-1.691 1.851,-1.128 2.776,-3.132 2.776,-6.007 0,-3.185 -1.224,-5.289 -3.672,-6.309 -2.111,-0.711 -4.805,-1.068 -8.079,-1.068 z m 0,26.394 v 18.228 h 16.6 c 2.963,0 5.271,-0.401 6.922,-1.206 2.995,-1.483 4.494,-4.328 4.494,-8.534 0,-3.555 -1.453,-5.999 -4.355,-7.328 -1.622,-0.742 -3.898,-1.128 -6.832,-1.159 h -16.829 z"
         id="path45"
         inkscape:connector-curvature="0"
         style="fill:#143d69" /></g></g><path
     d="m 425.09,34.8325 h -17.663 l -10.402,28.16 h -32.896 v -16.289 h 35.138 V 34.8325 H 347.04 v 68.235 h 17.089 v -28.183 l 28.5,0.014 -10.404,28.169 h 18.232 l 4.326,-14.095 h 23.437 l 4.32,14.095 h 18.329 z m -16.305,42.272 7.648,-25.568 7.874,25.568 z"
     id="path51"
     inkscape:connector-curvature="0"
     style="fill:#143d69" /><path
     d="m 619.047,103.0665 v -68.368 h 24.688 c 3.987,0 7.405,0.414 10.254,1.235 2.85,0.823 5.176,1.994 6.979,3.513 1.805,1.519 3.117,3.338 3.94,5.46 0.822,2.121 1.234,4.448 1.234,6.979 0,2.408 -0.316,4.48 -0.949,6.221 -0.633,1.741 -1.458,3.196 -2.468,4.366 -1.014,1.172 -2.17,2.09 -3.468,2.754 -1.297,0.665 -2.644,1.124 -4.034,1.376 v 0.19 c 4.747,0.698 8.275,2.564 10.588,5.603 2.309,3.039 3.465,6.836 3.465,11.395 0,3.544 -0.555,6.552 -1.662,9.021 -1.107,2.468 -2.645,4.462 -4.604,5.981 -1.963,1.519 -4.321,2.611 -7.075,3.275 -2.753,0.667 -5.744,0.998 -8.973,0.998 h -27.915 z m 6.456,-38.171 h 16.332 c 3.354,0 6.173,-0.286 8.451,-0.856 2.279,-0.569 4.115,-1.408 5.508,-2.516 1.392,-1.107 2.389,-2.468 2.99,-4.083 0.602,-1.613 0.902,-3.464 0.902,-5.554 0,-2.15 -0.348,-3.972 -1.044,-5.46 -0.698,-1.486 -1.804,-2.689 -3.324,-3.607 -1.52,-0.917 -3.498,-1.582 -5.935,-1.996 -2.438,-0.412 -5.429,-0.616 -8.972,-0.616 h -14.909 v 24.688 z m 0,32.662 h 16.428 c 3.544,0 6.63,-0.157 9.257,-0.475 2.626,-0.315 4.796,-0.965 6.505,-1.945 1.71,-0.981 2.99,-2.374 3.847,-4.178 0.854,-1.806 1.281,-4.193 1.281,-7.169 0,-2.849 -0.476,-5.145 -1.426,-6.886 -0.948,-1.738 -2.31,-3.086 -4.081,-4.034 -1.773,-0.951 -3.894,-1.598 -6.362,-1.947 -2.469,-0.347 -5.223,-0.521 -8.262,-0.521 h -17.187 z"
     id="path53"
     inkscape:connector-curvature="0"
     style="fill:#143d69" /><g
     id="g2483"
     transform="translate(0.568,-1.3935)"><path
       id="path38"
       d="m 273.497,123.569 -11.973,-6.911 v -13.604 c 0.428,-0.172 0.843,-0.367 1.247,-0.604 6.574,-3.822 7.264,-14.914 1.533,-24.781 -5.729,-9.863 -15.707,-14.766 -22.284,-10.947 -6.579,3.818 -7.266,14.916 -1.535,24.782 0.844,1.451 1.779,2.79 2.78,4.013 v 10.604 l -13.93,-8.042 v -51.03 l -5.102,-2.945 c -4.358,8.146 -6.868,17.429 -6.868,27.312 0,31.408 24.962,56.975 56.13,57.981 v -5.828 z"
       inkscape:connector-curvature="0"
       style="fill:#229567" /><path
       id="path40"
       d="m 326.563,44.122 -5.112,2.954 v 16.14 l -9.602,5.447 c -0.7,-0.815 -1.513,-1.515 -2.455,-2.062 -6.577,-3.82 -16.557,1.083 -22.287,10.945 -5.727,9.868 -5.044,20.961 1.531,24.783 6.58,3.818 16.556,-1.082 22.287,-10.948 1.238,-2.131 2.176,-4.318 2.818,-6.48 l 7.707,-4.463 v 17.641 l -44.082,25.45 v 5.865 c 31.134,-1.043 56.052,-26.595 56.052,-57.979 0.002,-9.877 -2.503,-19.155 -6.857,-27.293 z"
       inkscape:connector-curvature="0"
       style="fill:#163c64" /><path
       id="path42"
       d="m 231.346,43.736 13.746,-7.935 8.809,5.102 c -0.315,0.957 -0.483,1.95 -0.483,2.97 0,7.605 9.247,13.77 20.658,13.77 11.408,0 20.657,-6.165 20.657,-13.77 0,-7.609 -9.249,-13.771 -20.657,-13.771 -2.545,0 -4.983,0.307 -7.236,0.87 l -6.745,-3.833 15.303,-8.832 44.069,25.441 c 1.906,-1.101 3.643,-2.104 5.158,-2.979 C 314.38,24.344 296.187,13.39 275.398,13.39 c -20.782,0 -38.974,10.947 -49.222,27.364 1.555,0.896 3.288,1.894 5.17,2.982 z"
       inkscape:connector-curvature="0"
       style="fill:#c52128" /></g></svg>