<?xml version="1.0" encoding="utf-8"?>
<!-- Generator: Adobe Illustrator 23.1.0, SVG Export Plug-In . SVG Version: 6.00 Build 0)  -->
<svg version="1.1" id="Ebene_1" xmlns="http://www.w3.org/2000/svg" xmlns:xlink="http://www.w3.org/1999/xlink" x="0px" y="0px"
	 viewBox="0 0 120.33 126" style="enable-background:new 0 0 120.33 126;" xml:space="preserve">
<style type="text/css">
	.st0{fill:#FFFFFF;}
	.st1{fill:#228848;}
	.st2{fill:#C8102E;}
	.st3{fill:#002F6C;}
	.st4{fill:none;stroke:#010101;}
	.st5{fill:#04316A;}
</style>
<rect x="0" class="st0" width="120.33" height="126"/>
<g>
	<path class="st1" d="M58.35,98.71c-25.04-0.83-44.65-21.12-44.65-46.19c0-7.77,1.96-15.44,5.68-22.21
		c0.09-0.17,0.25-0.29,0.43-0.33c0.05-0.01,0.11-0.02,0.16-0.02c0.13,0,0.26,0.04,0.38,0.11l3.91,2.58c0.19,0.13,0.3,0.34,0.3,0.57
		v39.61l9.8,5.61V71.8c-0.86-1.01-1.64-2.12-2.33-3.28c-2.25-3.82-3.36-8.01-3.12-11.8c0.24-3.89,1.87-6.91,4.57-8.51
		c1.31-0.77,2.79-1.16,4.4-1.16c5.07,0,10.59,3.81,14.07,9.72c2.25,3.81,3.36,8,3.12,11.8c-0.24,3.89-1.87,6.91-4.57,8.51
		c-0.26,0.15-0.53,0.29-0.8,0.41V87.5l9.01,5.25c0.21,0.12,0.34,0.34,0.34,0.59l0,4.69c0,0.19-0.07,0.36-0.21,0.49
		c-0.13,0.12-0.3,0.19-0.47,0.19C58.36,98.71,58.35,98.71,58.35,98.71z"/>
	<path id="path5_1_" class="st1" d="M49.03,87.89V77.03c0.39-0.15,0.77-0.33,1.14-0.54c5.18-3.05,5.72-11.73,1.22-19.37
		c-4.51-7.65-12.36-11.37-17.54-8.32c-5.18,3.05-5.72,11.73-1.22,19.37c0.73,1.23,1.54,2.36,2.42,3.38v8.07l-11.16-6.39V33.22
		l-3.91-2.58c-3.56,6.49-5.59,13.95-5.59,21.88c0,24.64,19.55,44.7,44,45.51l0-4.69L49.03,87.89z"/>
	<path class="st2" d="M59.57,42.31c-9.59,0-17.44-5.01-17.5-11.17c0-0.38,0-1.4,0.09-2.42l-6.09-3.61l-10.5,6.43
		c-0.11,0.07-0.23,0.1-0.36,0.1c-0.13,0-0.25-0.03-0.36-0.1l-3.97-2.51c-0.32-0.2-0.41-0.62-0.21-0.93
		C29.15,14.43,43.83,6.27,59.95,6.27c8.05,0,16.01,2.13,23.03,6.17c6.73,3.88,12.41,9.41,16.42,16c0.1,0.16,0.12,0.35,0.08,0.53
		c-0.05,0.18-0.17,0.33-0.33,0.42l-4,2.2c-0.1,0.06-0.21,0.08-0.33,0.08c-0.12,0-0.24-0.03-0.34-0.09L59.92,11.5l-10.52,6l3.8,2.43
		c1.58-0.3,3.94-0.73,6.47-0.73l0.63,0.01c8.99,0.27,15.31,5.06,15.36,11.66c0.05,5.45-6.3,11.35-15.83,11.45
		C59.84,42.31,59.57,42.31,59.57,42.31z"/>
	<path id="path7_1_" class="st2" d="M36.06,24.32l6.82,4.04c-0.13,1.12-0.14,2.36-0.13,2.78c0.06,6.01,8.2,10.58,17.08,10.49
		s15.2-5.47,15.15-10.76c-0.05-6.01-5.83-10.72-14.7-10.98c-3-0.09-5.9,0.51-7.22,0.76l-4.98-3.18l11.83-6.75l34.89,20.28l4-2.2
		c-3.85-6.33-9.3-11.81-16.17-15.76C61.28,0.74,34.14,7.67,21.24,28.45l3.97,2.51L36.06,24.32L36.06,24.32z"/>
	<path class="st3" d="M61.24,98.72c-0.18,0-0.35-0.07-0.47-0.19c-0.13-0.13-0.21-0.3-0.21-0.49l-0.02-4.58
		c0-0.24,0.13-0.47,0.34-0.59l34.46-20.12l0.03-12.3l-5.08,2.93l-0.13,0.37c-0.51,1.51-1.27,3.79-1.9,4.92
		c-3.29,5.9-8.74,9.71-13.9,9.71c-1.61,0-3.09-0.37-4.42-1.11c-2.72-1.52-4.35-4.54-4.59-8.51c-0.22-3.81,0.85-8.05,3.02-11.96
		c3.39-6.09,8.9-10.02,14.02-10.02c1.53,0,2.94,0.36,4.21,1.06c0.18,0.1,0.63,0.47,1.09,0.87c0.26,0.22,0.64,0.54,0.89,0.74
		l6.71-3.51v-12.9c0-0.25,0.13-0.48,0.35-0.6l4-2.2c0.1-0.05,0.21-0.08,0.33-0.08c0.07,0,0.13,0.01,0.19,0.03
		c0.18,0.05,0.32,0.17,0.41,0.33c11.93,22.02,4.34,49.2-17.3,61.87c-6.7,3.92-14.32,6.11-22.03,6.33
		C61.25,98.72,61.24,98.72,61.24,98.72z"/>
	<path id="path9_1_" class="st3" d="M95.99,46.36l-7.42,3.88c-0.27-0.04-1.92-1.59-2.29-1.79c-5.25-2.93-12.98,0.94-17.3,8.7
		c-4.32,7.75-3.95,16.62,1.3,19.55c5.25,2.93,13.07-0.58,17.39-8.34c0.7-1.25,1.63-4.15,2.06-5.42l6.32-3.65l-0.04,13.87
		L61.22,93.46l0.02,4.58c7.41-0.21,14.86-2.22,21.71-6.23c21.26-12.45,28.69-39.46,17.04-60.96l-4,2.2V46.36L95.99,46.36z"/>
</g>
<g>
	<g>
		<path id="FAU_x5F_Logo_1_" class="st5" d="M7.13,106.69l0.72-0.72v13.1H7.13V106.69z M9.3,106.08h8.66v-0.72H8.58v8.66h7.97v-0.72
			H9.3V106.08z M17.63,111.85h-6.89v-2.89h5.89l0.72-0.72h-6.61v-0.72h7.21v-0.72h-7.94v5.77h6.9L17.63,111.85z M8.58,119.07H9.3
			v-3.61h0.72v3l0.72-0.72v-2.28h5.8v-0.72H8.58V119.07z M43.7,105.36v8.3c0,1.93-0.86,3.59-2.87,4.86l-0.02-0.02
			c1.32-1.05,2.17-2.39,2.17-4.13v-9.01h-0.72v8.99c0,2.59-2.1,4.53-4.69,4.53s-4.69-1.94-4.69-4.53v-8.39l-0.72,0.72v7.68
			c0,2.99,2.42,5.23,5.41,5.23c0.07,0,0.72,0,0.72,0c2.94,0,6.13-2.17,6.13-5.93c0,0,0-8.31,0-8.31H43.7z M37.57,118.16
			c2.19,0,3.97-1.62,3.97-3.81l0,0v-8.39l-0.72,0.72v6.97c0,1.39-1.13,2.34-2.53,2.34c-1.39,0-2.53-0.95-2.53-2.34v-8.3h-0.72v8.3
			c0,1.79,1.45,3.07,3.25,3.07c0.73,0,1.62-0.36,2.23-1l0.02,0.02c-0.57,1.05-1.61,1.7-2.97,1.7c-1.78,0-3.23-1.29-3.25-3.07h0
			v-9.02H33.6v9.02h0C33.62,116.55,35.39,118.16,37.57,118.16z M21.54,114.74l-1.82,4.33l0.72,0l0,0h0l0.91-2.16h6.11l0.91,2.16
			h0.72l-1.22-2.89h-6.23l0.3-0.72h6.34l1.52,3.61h0.72l-1.82-4.33H21.54L21.54,114.74z M22.6,105.36l-5.3,12.58l0.46,0.62
			l5.56-13.2H22.6z M25.49,105.36l5.56,13.2l0.46-0.62l-5.29-12.58H25.49z M21.12,114.02l-2.13,5.05h-0.72l5.42-12.85l2.98,7.08
			h0.72l-3.34-7.94h0.72l3.65,8.66H21.12L21.12,114.02z M24.4,109.65l-1.54,3.65h3.07L24.4,109.65z M21.42,113.29h0.72l1.9-4.5
			l-0.36-0.86L21.42,113.29z"/>
	</g>
	<g>
		<path class="st5" d="M57.97,105.31v2.68h-6.02v2.83h4.43v2.66h-4.43v5.59h-3.07v-13.75H57.97z"/>
		<path class="st5" d="M56.92,119.07l5.1-13.75h3.22l5.08,13.75h-3.34l-0.86-2.68h-5.06l-0.86,2.68H56.92z M63.58,108.65l-1.68,5.18
			h3.4l-1.68-5.18H63.58z"/>
		<path class="st5" d="M79.4,111.74c1.64,0.44,2.46,1.52,2.46,3.24c0,1.25-0.44,2.24-1.31,2.98c-0.87,0.74-2.08,1.1-3.61,1.1h-5.55
			v-13.75h5.45c1.47,0,2.6,0.29,3.38,0.87c0.78,0.58,1.17,1.43,1.17,2.55c0,1.48-0.66,2.47-1.99,2.97V111.74z M76.69,110.8
			c0.55,0,0.97-0.14,1.27-0.42c0.3-0.28,0.45-0.66,0.45-1.14c0-0.94-0.6-1.41-1.8-1.41h-2.23v2.97H76.69z M76.76,116.55
			c0.64,0,1.14-0.16,1.49-0.47c0.36-0.31,0.54-0.76,0.54-1.33c0-1.13-0.72-1.7-2.15-1.7h-2.27v3.5H76.76z"/>
		<path class="st5" d="M91.88,117.56v1.5h-7.79v-13.75h1.56v12.25H91.88z"/>
		<path class="st5" d="M91.32,119.07l5.16-13.75h1.64l5.12,13.75h-1.68l-1.19-3.36h-6.21l-1.21,3.36H91.32z M97.25,107.13
			l-2.58,7.11h5.16l-2.54-7.11H97.25z"/>
		<path class="st5" d="M109.89,111.7c0.9,0.17,1.61,0.54,2.12,1.12c0.51,0.58,0.77,1.34,0.77,2.28c0,1.22-0.42,2.19-1.25,2.9
			c-0.83,0.71-1.95,1.06-3.34,1.06h-4.59v-13.75h4.51c1.24,0,2.22,0.27,2.96,0.82c0.74,0.55,1.1,1.37,1.1,2.46
			c0,0.79-0.2,1.46-0.6,1.99c-0.4,0.53-0.96,0.9-1.69,1.09V111.7z M108,111.15c0.79,0,1.44-0.2,1.92-0.61
			c0.49-0.4,0.73-0.97,0.73-1.7c0-0.72-0.25-1.25-0.74-1.59c-0.5-0.34-1.15-0.52-1.97-0.52h-2.81v4.41H108z M108.11,117.64
			c0.96,0,1.73-0.22,2.29-0.67s0.84-1.1,0.84-1.94c0-0.85-0.29-1.48-0.87-1.91c-0.58-0.43-1.38-0.65-2.41-0.65h-2.83v5.18H108.11z"
			/>
	</g>
</g>
</svg>
