<?xml version="1.0" encoding="utf-8"?>
<!-- Generator: Adobe Illustrator 23.1.0, SVG Export Plug-In . SVG Version: 6.00 Build 0)  -->
<svg version="1.1" id="Ebene_1" xmlns="http://www.w3.org/2000/svg" xmlns:xlink="http://www.w3.org/1999/xlink" x="0px" y="0px"
	 viewBox="0 0 132.58 24" style="enable-background:new 0 0 132.58 24;" xml:space="preserve">
<style type="text/css">
	.st0{display:none;fill:#FFFFFF;}
	.st1{fill:#04316A;}
	.st2{fill:#228848;}
	.st3{fill:#C8102E;}
	.st4{fill:#002F6C;}
	.st5{fill:none;stroke:#010101;}
</style>
<rect class="st0" width="132.58" height="24"/>
<g>
	<path id="FAU_x5F_Logo_1_" class="st1" d="M2.79,6.54l0.72-0.72v13.1H2.79V6.54z M4.96,5.93h8.66V5.21H4.23v8.66h7.97v-0.72H4.96
		V5.93z M13.29,11.7H6.4V8.82h5.89l0.72-0.72H6.4V7.37h7.21V6.65H5.68v5.77h6.9L13.29,11.7z M4.23,18.92h0.72v-3.61h0.72v3
		l0.72-0.72v-2.28h5.8v-0.72H4.23V18.92z M39.36,5.21v8.3c0,1.93-0.86,3.59-2.87,4.86l-0.02-0.02c1.32-1.05,2.17-2.39,2.17-4.13
		V5.21h-0.72v8.99c0,2.59-2.1,4.53-4.69,4.53s-4.69-1.94-4.69-4.53V5.81l-0.72,0.72v7.68c0,2.99,2.42,5.23,5.41,5.23
		c0.07,0,0.72,0,0.72,0c2.94,0,6.13-2.17,6.13-5.93c0,0,0-8.31,0-8.31L39.36,5.21z M33.23,18.01c2.19,0,3.97-1.62,3.97-3.81l0,0
		V5.81l-0.72,0.72v6.97c0,1.39-1.13,2.34-2.53,2.34c-1.39,0-2.53-0.95-2.53-2.34v-8.3H30.7v8.3c0,1.79,1.45,3.07,3.25,3.07
		c0.73,0,1.62-0.36,2.23-1l0.02,0.02c-0.57,1.05-1.61,1.7-2.97,1.7c-1.78,0-3.23-1.29-3.25-3.07h0V5.21h-0.72v9.02h0
		C29.27,16.4,31.05,18.01,33.23,18.01z M17.2,14.59l-1.82,4.33l0.72,0l0,0h0l0.91-2.16h6.11l0.91,2.16h0.72l-1.22-2.89h-6.23
		l0.3-0.72h6.34l1.52,3.61h0.72l-1.82-4.33L17.2,14.59L17.2,14.59z M18.26,5.21l-5.3,12.58l0.46,0.62l5.56-13.2L18.26,5.21z
		 M21.14,5.21l5.56,13.2l0.46-0.62L21.86,5.21H21.14z M16.78,13.87l-2.13,5.05h-0.72l5.42-12.85l2.98,7.08h0.72L19.7,5.21h0.72
		l3.65,8.66L16.78,13.87L16.78,13.87z M20.06,9.5l-1.54,3.65h3.07L20.06,9.5z M17.08,13.14h0.72l1.9-4.5l-0.36-0.86L17.08,13.14z"/>
</g>
<g>
	<path class="st2" d="M52.94,22.46c-5.63-0.19-10.04-4.75-10.04-10.39c0-1.75,0.44-3.47,1.28-5c0.02-0.04,0.06-0.06,0.1-0.07
		c0.01,0,0.02,0,0.04,0c0.03,0,0.06,0.01,0.08,0.02l0.88,0.58c0.04,0.03,0.07,0.08,0.07,0.13v8.91l2.21,1.26v-1.5
		c-0.19-0.23-0.37-0.48-0.52-0.74c-0.51-0.86-0.75-1.8-0.7-2.65c0.05-0.88,0.42-1.56,1.03-1.91c0.29-0.17,0.63-0.26,0.99-0.26
		c1.14,0,2.38,0.86,3.16,2.19c0.51,0.86,0.75,1.8,0.7,2.65c-0.05,0.88-0.42,1.55-1.03,1.91c-0.06,0.03-0.12,0.06-0.18,0.09v2.25
		l2.03,1.18c0.05,0.03,0.08,0.08,0.08,0.13l0,1.06c0,0.04-0.02,0.08-0.05,0.11C53.02,22.44,52.98,22.46,52.94,22.46
		C52.94,22.46,52.94,22.46,52.94,22.46z"/>
	<path id="path5_1_" class="st2" d="M50.84,20.02v-2.44c0.09-0.03,0.17-0.07,0.26-0.12c1.16-0.69,1.29-2.64,0.27-4.36
		c-1.01-1.72-2.78-2.56-3.94-1.87c-1.16,0.69-1.29,2.64-0.27,4.36c0.16,0.28,0.35,0.53,0.54,0.76v1.82l-2.51-1.44v-9l-0.88-0.58
		c-0.8,1.46-1.26,3.14-1.26,4.92c0,5.54,4.4,10.05,9.9,10.24l0-1.06L50.84,20.02z"/>
	<path class="st3" d="M53.21,9.77c-2.16,0-3.92-1.13-3.94-2.51c0-0.09,0-0.31,0.02-0.54L47.93,5.9l-2.36,1.45
		c-0.02,0.02-0.05,0.02-0.08,0.02c-0.03,0-0.06-0.01-0.08-0.02l-0.89-0.56c-0.07-0.04-0.09-0.14-0.05-0.21
		c1.91-3.07,5.21-4.91,8.84-4.91c1.81,0,3.6,0.48,5.18,1.39c1.51,0.87,2.79,2.12,3.69,3.6c0.02,0.04,0.03,0.08,0.02,0.12
		s-0.04,0.07-0.07,0.09l-0.9,0.49c-0.02,0.01-0.05,0.02-0.07,0.02c-0.03,0-0.05-0.01-0.08-0.02l-7.77-4.52l-2.37,1.35l0.85,0.55
		c0.36-0.07,0.89-0.17,1.45-0.17l0.14,0c2.02,0.06,3.44,1.14,3.46,2.62c0.01,1.23-1.42,2.55-3.56,2.57
		C53.27,9.77,53.21,9.77,53.21,9.77z"/>
	<path id="path7_1_" class="st3" d="M47.93,5.72l1.53,0.91c-0.03,0.25-0.03,0.53-0.03,0.63c0.01,1.35,1.85,2.38,3.84,2.36
		s3.42-1.23,3.41-2.42c-0.01-1.35-1.31-2.41-3.31-2.47c-0.68-0.02-1.33,0.11-1.62,0.17l-1.12-0.72l2.66-1.52l7.85,4.56l0.9-0.49
		c-0.87-1.42-2.09-2.66-3.64-3.55c-4.8-2.77-10.91-1.21-13.81,3.47l0.89,0.56L47.93,5.72L47.93,5.72z"/>
	<path class="st4" d="M53.59,22.46c-0.04,0-0.08-0.02-0.11-0.04c-0.03-0.03-0.05-0.07-0.05-0.11l0-1.03c0-0.05,0.03-0.11,0.08-0.13
		l7.75-4.53l0.01-2.77l-1.14,0.66l-0.03,0.08c-0.11,0.34-0.29,0.85-0.43,1.11c-0.74,1.33-1.97,2.18-3.13,2.18
		c-0.36,0-0.7-0.08-0.99-0.25c-0.61-0.34-0.98-1.02-1.03-1.92c-0.05-0.86,0.19-1.81,0.68-2.69c0.76-1.37,2-2.25,3.15-2.25
		c0.34,0,0.66,0.08,0.95,0.24c0.04,0.02,0.14,0.11,0.25,0.2c0.06,0.05,0.14,0.12,0.2,0.17l1.51-0.79v-2.9
		c0-0.06,0.03-0.11,0.08-0.13l0.9-0.49c0.02-0.01,0.05-0.02,0.07-0.02c0.01,0,0.03,0,0.04,0.01c0.04,0.01,0.07,0.04,0.09,0.07
		c2.68,4.95,0.98,11.07-3.89,13.92C57.04,21.92,55.33,22.41,53.59,22.46C53.59,22.46,53.59,22.46,53.59,22.46z"/>
	<path id="path9_1_" class="st4" d="M61.4,10.68l-1.67,0.87c-0.06-0.01-0.43-0.36-0.51-0.4c-1.18-0.66-2.92,0.21-3.89,1.96
		c-0.97,1.74-0.89,3.74,0.29,4.4c1.18,0.66,2.94-0.13,3.91-1.88c0.16-0.28,0.37-0.93,0.46-1.22l1.42-0.82l-0.01,3.12l-7.83,4.57
		l0,1.03c1.67-0.05,3.34-0.5,4.88-1.4c4.78-2.8,6.45-8.87,3.83-13.71l-0.9,0.49V10.68L61.4,10.68z"/>
</g>
<g>
	<path class="st1" d="M75.98,5.16v2.68h-6.02v2.83h4.43v2.66h-4.43v5.59h-3.07V5.16H75.98z"/>
	<path class="st1" d="M74.92,18.92l5.1-13.75h3.22l5.08,13.75h-3.34l-0.86-2.68h-5.06l-0.86,2.68H74.92z M81.58,8.5l-1.68,5.18h3.4
		L81.62,8.5H81.58z"/>
	<path class="st1" d="M97.4,11.59c1.64,0.44,2.46,1.52,2.46,3.24c0,1.25-0.44,2.24-1.31,2.98c-0.87,0.74-2.08,1.1-3.61,1.1h-5.55
		V5.16h5.45c1.47,0,2.6,0.29,3.38,0.87c0.78,0.58,1.17,1.43,1.17,2.55c0,1.48-0.66,2.47-1.99,2.97V11.59z M94.69,10.65
		c0.55,0,0.97-0.14,1.27-0.42c0.3-0.28,0.45-0.66,0.45-1.14c0-0.94-0.6-1.41-1.8-1.41h-2.23v2.97H94.69z M94.77,16.4
		c0.64,0,1.14-0.16,1.49-0.47c0.36-0.31,0.54-0.76,0.54-1.33c0-1.13-0.72-1.7-2.15-1.7h-2.27v3.5H94.77z"/>
	<path class="st1" d="M109.89,17.41v1.5h-7.79V5.16h1.56v12.25H109.89z"/>
	<path class="st1" d="M109.32,18.92l5.16-13.75h1.64l5.12,13.75h-1.68l-1.19-3.36h-6.21l-1.21,3.36H109.32z M115.26,6.98l-2.58,7.11
		h5.16l-2.54-7.11H115.26z"/>
	<path class="st1" d="M127.9,11.55c0.9,0.17,1.6,0.54,2.12,1.12s0.77,1.34,0.77,2.28c0,1.22-0.42,2.19-1.25,2.9
		c-0.83,0.71-1.95,1.06-3.34,1.06h-4.59V5.16h4.51c1.24,0,2.22,0.27,2.96,0.82c0.74,0.55,1.1,1.37,1.1,2.46
		c0,0.79-0.2,1.46-0.6,1.99c-0.4,0.53-0.96,0.9-1.69,1.09V11.55z M126,11c0.79,0,1.44-0.2,1.92-0.61c0.49-0.4,0.73-0.97,0.73-1.7
		c0-0.72-0.25-1.25-0.74-1.59c-0.5-0.34-1.15-0.52-1.97-0.52h-2.81V11H126z M126.12,17.49c0.96,0,1.72-0.22,2.29-0.67
		c0.56-0.45,0.84-1.1,0.84-1.94c0-0.85-0.29-1.48-0.87-1.91c-0.58-0.43-1.38-0.65-2.41-0.65h-2.83v5.18H126.12z"/>
</g>
</svg>
