<?xml version="1.0" encoding="UTF-8" standalone="no"?>
<!-- Creator: CorelDRAW X6 -->

<svg
   xmlns:dc="http://purl.org/dc/elements/1.1/"
   xmlns:cc="http://creativecommons.org/ns#"
   xmlns:rdf="http://www.w3.org/1999/02/22-rdf-syntax-ns#"
   xmlns:svg="http://www.w3.org/2000/svg"
   xmlns="http://www.w3.org/2000/svg"
   xmlns:sodipodi="http://sodipodi.sourceforge.net/DTD/sodipodi-0.dtd"
   xmlns:inkscape="http://www.inkscape.org/namespaces/inkscape"
   xml:space="preserve"
   width="738.79999"
   height="738.5"
   version="1.1"
   style="fill-rule:evenodd"
   viewBox="0 0 20850.578 20842.111"
   id="svg2"
   inkscape:version="0.48.3.1 r10006"
   sodipodi:docname="fab_cube.svg"
   inkscape:export-filename="/home/fablab/Dateifreigabe/1_fablab/1_Logo/fab_cube.png"
   inkscape:export-xdpi="1200"
   inkscape:export-ydpi="1200"><metadata
   id="metadata108"><rdf:RDF><cc:Work
       rdf:about=""><dc:format>image/svg+xml</dc:format><dc:type
         rdf:resource="http://purl.org/dc/dcmitype/StillImage" /><dc:title /></cc:Work></rdf:RDF></metadata><sodipodi:namedview
   pagecolor="#ffffff"
   bordercolor="#666666"
   borderopacity="1"
   objecttolerance="10"
   gridtolerance="10"
   guidetolerance="10"
   inkscape:pageopacity="0"
   inkscape:pageshadow="2"
   inkscape:window-width="1280"
   inkscape:window-height="972"
   id="namedview106"
   showgrid="false"
   inkscape:zoom="0.24004113"
   inkscape:cx="1337.8205"
   inkscape:cy="-674.92077"
   inkscape:window-x="-8"
   inkscape:window-y="-8"
   inkscape:window-maximized="1"
   inkscape:current-layer="svg2"
   inkscape:snap-global="false" />
 <defs
   id="defs4">
  <style
   type="text/css"
   id="style6">
   
    .str0 {stroke:black;stroke-width:7.62}
    .fil0 {fill:none;fill-rule:nonzero}
   
  </style>
 
  
  
  
  
  
  
  
  
  
  
  
  
  
  
  
  
  
  
  
  
  
  
  
  
  
  
  
  
  
  
  
  
  
  
  
  
  
  
  
  
  
  
  
  
  
  
  
  
  
 </defs>
 <g
   id="g3931"
   transform="matrix(0.24016141,0,0,0.24016141,-1193.679,15035.387)"
   style="fill:#000000;fill-opacity:1;stroke:none"><path
     class="fil0 str0"
     d="m 15106.915,23068.993 -2148.678,-1241.307 0,-2439.758 c 77.232,-29.985 149.796,-64.196 222.626,-107.01 1181.326,-689.121 1305.414,-2675.167 278.159,-4447.224 -1031.558,-1767.764 -2820.703,-2649.534 -3997.824,-1964.651 -1181.3463,684.822 -1305.4715,2675.194 -278.1893,4447.269 154.0919,261.074 320.9261,500.763 500.7558,719.04 l 0,1900.455 -2499.779,-1442.451 0,-9151.3124 -915.9041,-530.7563 c -778.9996,1463.8717 -1232.7095,3128.9007 -1232.7095,4900.8957 0,5632.94 4481.5111,10221.428 10071.5431,10401.229 l 0,-1044.419 z"
     id="path100"
     inkscape:connector-curvature="0"
     style="fill:#000000;fill-opacity:1;fill-rule:nonzero;stroke:none" /><path
     class="fil0 str0"
     d="m 24626.386,8815.5645 -915.986,530.7616 0,2893.5159 -1724.987,980.162 c -124.097,-149.817 -269.657,-273.952 -440.856,-372.399 -1177.111,-684.835 -2970.542,196.905 -3997.824,1964.691 -1027.263,1767.751 -903.117,3758.114 273.945,4447.239 1181.366,684.845 2970.51,-196.904 3997.793,-1964.631 222.596,-385.247 393.696,-774.797 509.38,-1164.29 l 1382.549,-800.472 0,3163.214 -7910.037,4567.094 0,1052.962 c 5585.784,-188.336 10054.341,-4772.535 10054.341,-10401.229 0,-1771.995 -449.349,-3437.024 -1228.318,-4896.6185 z"
     id="path102"
     inkscape:connector-curvature="0"
     style="fill:#000000;fill-opacity:1;fill-rule:nonzero;stroke:none" /><path
     class="fil0 str0"
     d="m 7543.6515,8747.081 2465.4055,-1425.3464 1583.755,915.9939 c -59.92,171.2098 -89.885,350.9842 -89.885,535.0378 0,1361.1387 1660.739,2469.7367 3706.694,2469.7367 2046.013,0 3706.851,-1108.598 3706.851,-2469.7367 0,-1365.4159 -1660.838,-2474.0221 -3706.851,-2474.0221 -457.944,0 -894.535,55.6466 -1296.882,158.3722 l -1211.321,-689.1292 2743.648,-1583.7168 7905.742,4562.8106 c 342.437,-196.889 654.939,-376.6662 928.835,-530.7576 -1840.533,-2949.1328 -5102.105,-4913.7963 -8834.577,-4913.7963 -3723.85,0 -6989.7573,1964.6635 -8825.9774,4909.5148 278.2073,162.6546 586.4173,338.1501 924.5629,535.0391 z"
     id="path104"
     inkscape:connector-curvature="0"
     style="fill:#000000;fill-opacity:1;fill-rule:nonzero;stroke:none" /></g>
</svg>