<?xml version="1.0" encoding="UTF-8" standalone="no"?>
<!-- Creator: CorelDRAW X6 -->

<svg
   xmlns:dc="http://purl.org/dc/elements/1.1/"
   xmlns:cc="http://creativecommons.org/ns#"
   xmlns:rdf="http://www.w3.org/1999/02/22-rdf-syntax-ns#"
   xmlns:svg="http://www.w3.org/2000/svg"
   xmlns="http://www.w3.org/2000/svg"
   xmlns:sodipodi="http://sodipodi.sourceforge.net/DTD/sodipodi-0.dtd"
   xmlns:inkscape="http://www.inkscape.org/namespaces/inkscape"
   xml:space="preserve"
   width="738.79999"
   height="738.5"
   version="1.1"
   style="fill-rule:evenodd"
   viewBox="0 0 20850.578 20842.111"
   id="svg2"
   inkscape:version="0.92.1 r15371"
   sodipodi:docname="fab_cube invers.svg"
   inkscape:export-filename="C:\Users\user\Dropbox\FabLab\Logo\bitmap_invers.png"
   inkscape:export-xdpi="1200"
   inkscape:export-ydpi="1200"><metadata
     id="metadata108"><rdf:RDF><cc:Work
         rdf:about=""><dc:format>image/svg+xml</dc:format><dc:type
           rdf:resource="http://purl.org/dc/dcmitype/StillImage" /><dc:title /></cc:Work></rdf:RDF></metadata><sodipodi:namedview
     pagecolor="#ffffff"
     bordercolor="#666666"
     borderopacity="1"
     objecttolerance="10"
     gridtolerance="10"
     guidetolerance="10"
     inkscape:pageopacity="0"
     inkscape:pageshadow="2"
     inkscape:window-width="1366"
     inkscape:window-height="715"
     id="namedview106"
     showgrid="false"
     inkscape:zoom="1.0476448"
     inkscape:cx="160.83694"
     inkscape:cy="140.16473"
     inkscape:window-x="-8"
     inkscape:window-y="-8"
     inkscape:window-maximized="1"
     inkscape:current-layer="svg2"
     inkscape:snap-global="false" /><defs
     id="defs4"><style
       type="text/css"
       id="style6">
   
    .str0 {stroke:black;stroke-width:7.62}
    .fil0 {fill:none;fill-rule:nonzero}
   
  </style></defs><rect
     style="fill:#ff0000;fill-opacity:1;stroke:none;stroke-width:403.96987915;stroke-linecap:round;stroke-linejoin:miter;stroke-miterlimit:4;stroke-dasharray:none;stroke-opacity:1"
     id="rect4483"
     width="6400"
     height="6400"
     x="-4.5474735e-013"
     y="14442.111" /><path
     style="fill:#000000;fill-opacity:1;stroke:none;stroke-width:8.19559479;stroke-linecap:round;stroke-linejoin:miter;stroke-miterlimit:4;stroke-dasharray:none;stroke-opacity:1"
     d="M 0 511.72852 L 0 738.5 L 226.77148 738.5 L 226.77148 511.72852 L 0 511.72852 z M 113.38672 536.56836 C 145.14877 536.56836 172.90215 553.2867 188.56445 578.38281 C 186.23369 579.69408 183.57613 581.22298 180.66211 582.89844 L 113.38672 544.07031 L 90.039062 557.54688 L 100.3457 563.41211 C 103.76954 562.53794 107.48587 562.06445 111.38281 562.06445 C 128.79368 562.06445 142.92578 571.49798 142.92578 583.11719 C 142.92578 594.70001 128.79368 604.13477 111.38281 604.13477 C 93.972444 604.13477 79.839844 594.70001 79.839844 583.11719 C 79.839844 581.55094 80.095569 580.02139 80.605469 578.56445 L 67.126953 570.76953 L 46.148438 582.89844 C 43.270934 581.22298 40.646743 579.72983 38.279297 578.3457 C 53.904898 553.28602 81.698034 536.56836 113.38672 536.56836 z M 35.292969 583.44531 L 43.087891 587.96094 L 43.087891 665.83594 L 64.359375 678.11133 L 64.359375 661.93945 C 62.829088 660.08198 61.408928 658.04197 60.097656 655.82031 C 51.355839 640.74056 52.411993 623.80218 62.464844 617.97461 C 72.481737 612.14647 87.708125 619.65028 96.486328 634.69336 C 105.22791 649.77297 104.17182 666.67294 94.119141 672.53711 C 93.499381 672.90147 92.881826 673.19407 92.224609 673.44922 L 92.224609 694.21094 L 110.50781 704.77344 L 110.50781 713.66016 C 62.938565 712.13012 24.802734 673.08478 24.802734 625.15039 C 24.802734 610.07132 28.66395 595.90238 35.292969 583.44531 z M 191.51562 583.48242 C 198.14439 595.90309 201.96875 610.07132 201.96875 625.15039 C 201.96875 673.04864 163.94326 712.05748 116.41016 713.66016 L 116.41016 704.70117 L 183.7207 665.83594 L 183.7207 638.91797 L 171.95703 645.73047 C 170.9726 649.04491 169.51531 652.36033 167.62109 655.63867 C 158.87927 670.68139 143.65458 678.18325 133.60156 672.35547 C 123.58517 666.49126 122.52983 649.55465 131.27148 634.51172 C 140.0133 619.46847 155.27421 611.96526 165.29102 617.79297 C 166.74786 618.63071 167.98695 619.68606 169.04297 620.96094 L 183.7207 612.62109 L 183.7207 587.99805 L 191.51562 583.48242 z "
     transform="scale(28.222223)"
     id="rect819" /></svg>