<?xml version="1.0" encoding="UTF-8" standalone="no"?>
<svg
   xmlns:dc="http://purl.org/dc/elements/1.1/"
   xmlns:cc="http://creativecommons.org/ns#"
   xmlns:rdf="http://www.w3.org/1999/02/22-rdf-syntax-ns#"
   xmlns:svg="http://www.w3.org/2000/svg"
   xmlns="http://www.w3.org/2000/svg"
   version="1.1"
   height="512"
   width="512">
  <rect
     y="0"
     x="0"
     height="512"
     width="512"
     style="fill:#ffffff;stroke:none;"/>
  <g>
    <path
       d="m 248.19049,470.66265 c 0,0 -49.26643,-28.44104 -49.26643,-28.44104 0,0 0,-55.9802 0,-55.9802 1.75895,-0.70807 3.46664,-1.51545 5.13106,-2.49104 27.05216,-15.72476 29.89241,-61.36916 6.30849,-101.97383 C 186.78448,241.1895 145.72806,221.01452 118.66469,236.72806 91.593313,252.44 88.764266,298.10844 112.3498,338.7083 c 3.47303,5.96887 7.32092,11.48279 11.43954,16.51292 0,0 0,43.63556 0,43.63556 0,0 -57.321036,-33.09152 -57.321036,-33.09152 0,0 0,-209.98702 0,-209.98702 0,0 -20.993575,-12.12036 -20.993575,-12.12036 -17.933847,33.52244 -28.260027,71.71937 -28.260027,112.38651 0,129.24546 102.720338,234.45523 230.975788,238.59787 0,0 0,-23.97961 0,-23.97961 z"
       style="fill:#209466;stroke:none;"/>
    <path
       d="m 466.56212,143.73317 c 0,0 -21.03683,12.1524 -21.03683,12.1524 0,0 0,66.41852 0,66.41852 0,0 -39.51053,22.41451 -39.51053,22.41451 -2.87871,-3.35449 -6.22679,-6.2332 -10.10031,-8.48554 -27.06498,-15.71835 -68.1326,4.45502 -91.71173,45.04207 -23.56631,40.60627 -20.75649,86.25548 6.30048,101.98024 27.07779,15.71354 68.1278,-4.44862 91.71173,-45.04848 5.0942,-8.77229 8.9549,-17.77045 11.59652,-26.66929 0,0 31.71384,-18.36637 31.71384,-18.36637 0,0 0,72.59403 0,72.59403 0,0 -181.39699,104.72758 -181.39699,104.72758 0,0 0,24.13661 0,24.13661 128.11928,-4.29323 230.657,-109.44053 230.657,-238.58506 0,-40.64311 -10.30695,-78.82082 -28.22318,-112.31122 z"
       style="fill:#163b64;stroke:none;"/>
    <path
       d="m 53.77694,129.8269 c 0,0 21.042707,12.14223 21.042707,12.14223 0,0 57.520123,-33.20926 57.520123,-33.20926 0,0 39.16679,23.00987 39.16679,23.00987 -1.46571,4.17028 -2.28471,8.50915 -2.29853,12.98989 -0.0799,31.29813 37.92446,56.77703 84.86342,56.90363 46.94923,0.1059 85.0777,-25.15208 85.16725,-56.44648 0.0694,-31.30682 -37.91651,-56.776085 -84.86899,-56.90044 -10.14412,-0.02565 -19.86711,1.130051 -28.89455,3.291758 0,0 -31.76266,-18.281794 -31.76266,-18.281794 0,0 62.86829,-36.297017 62.86829,-36.297017 0,0 181.39524,104.730593 181.39524,104.730593 0,0 20.9029,-12.06831 20.9029,-12.06831 C 391.10124,20.883642 248.77216,-15.34297 136.92971,49.229294 101.73174,69.550856 73.822367,97.565782 53.77694,129.8269 Z"
       style="fill:#c42028;stroke:none;"/>
  </g>
</svg>
