<?xml version="1.0" encoding="UTF-8" standalone="no"?>
<!-- Creator: CorelDRAW X6 -->

<svg
   xmlns:dc="http://purl.org/dc/elements/1.1/"
   xmlns:cc="http://creativecommons.org/ns#"
   xmlns:rdf="http://www.w3.org/1999/02/22-rdf-syntax-ns#"
   xmlns:svg="http://www.w3.org/2000/svg"
   xmlns="http://www.w3.org/2000/svg"
   xmlns:sodipodi="http://sodipodi.sourceforge.net/DTD/sodipodi-0.dtd"
   xmlns:inkscape="http://www.inkscape.org/namespaces/inkscape"
   xml:space="preserve"
   width="297mm"
   height="210mm"
   version="1.1"
   style="shape-rendering:geometricPrecision; text-rendering:geometricPrecision; image-rendering:optimizeQuality; fill-rule:evenodd; clip-rule:evenodd"
   viewBox="0 0 29700 21000"
   id="svg2"
   inkscape:version="0.48.3.1 r10006"
   sodipodi:docname="fablab_logo.svg"><metadata
   id="metadata108"><rdf:RDF><cc:Work
       rdf:about=""><dc:format>image/svg+xml</dc:format><dc:type
         rdf:resource="http://purl.org/dc/dcmitype/StillImage" /></cc:Work></rdf:RDF></metadata><sodipodi:namedview
   pagecolor="#ffffff"
   bordercolor="#666666"
   borderopacity="1"
   objecttolerance="10"
   gridtolerance="10"
   guidetolerance="10"
   inkscape:pageopacity="0"
   inkscape:pageshadow="2"
   inkscape:window-width="1280"
   inkscape:window-height="972"
   id="namedview106"
   showgrid="false"
   inkscape:zoom="0.67893885"
   inkscape:cx="510.69349"
   inkscape:cy="228.21334"
   inkscape:window-x="-8"
   inkscape:window-y="-8"
   inkscape:window-maximized="1"
   inkscape:current-layer="svg2" />
 <defs
   id="defs4">
  <style
   type="text/css"
   id="style6">
   
    .str0 {stroke:black;stroke-width:7.62}
    .fil0 {fill:none;fill-rule:nonzero}
   
  </style>
 </defs>
 <g
   id="Ebene_x0020_1"
   style="fill:#000000;fill-opacity:1;stroke:#000000;stroke-width:0.96120894;stroke-miterlimit:4;stroke-opacity:1;stroke-dasharray:none"
   transform="matrix(1.0276388,0,0,1.0276434,-54.136955,-358.51446)">
  <metadata
   id="CorelCorpID_0Corel-Layer" />
  <path
   class="fil0 str0"
   d="m 8373,11721 -1735,0 c 107,89 230,156 361,203 l 1012,0 c 131,-47 255,-114 362,-203 z"
   id="path10"
   style="fill:#000000;fill-opacity:1;fill-rule:nonzero;stroke:#000000;stroke-width:0.96120894;stroke-miterlimit:4;stroke-opacity:1;stroke-dasharray:none"
   inkscape:connector-curvature="0" />
  <polygon
   class="fil0 str0"
   points="6290,9058 6290,9260 7008,9260 7008,9058 "
   id="polygon12"
   style="fill:#000000;fill-opacity:1;fill-rule:nonzero;stroke:#000000;stroke-width:0.96120894;stroke-miterlimit:4;stroke-opacity:1;stroke-dasharray:none" />
  <polygon
   class="fil0 str0"
   points="6290,9353 6290,9556 7008,9556 7008,9353 "
   id="polygon14"
   style="fill:#000000;fill-opacity:1;fill-rule:nonzero;stroke:#000000;stroke-width:0.96120894;stroke-miterlimit:4;stroke-opacity:1;stroke-dasharray:none" />
  <polygon
   class="fil0 str0"
   points="6290,9649 6290,9852 7008,9852 7008,9649 "
   id="polygon16"
   style="fill:#000000;fill-opacity:1;fill-rule:nonzero;stroke:#000000;stroke-width:0.96120894;stroke-miterlimit:4;stroke-opacity:1;stroke-dasharray:none" />
  <polygon
   class="fil0 str0"
   points="6290,9945 6290,10148 7008,10148 7008,9945 "
   id="polygon18"
   style="fill:#000000;fill-opacity:1;fill-rule:nonzero;stroke:#000000;stroke-width:0.96120894;stroke-miterlimit:4;stroke-opacity:1;stroke-dasharray:none" />
  <polygon
   class="fil0 str0"
   points="6290,10241 6290,10444 7008,10444 7008,10241 "
   id="polygon20"
   style="fill:#000000;fill-opacity:1;fill-rule:nonzero;stroke:#000000;stroke-width:0.96120894;stroke-miterlimit:4;stroke-opacity:1;stroke-dasharray:none" />
  <polygon
   class="fil0 str0"
   points="6290,10537 6290,10740 7008,10740 7008,10537 "
   id="polygon22"
   style="fill:#000000;fill-opacity:1;fill-rule:nonzero;stroke:#000000;stroke-width:0.96120894;stroke-miterlimit:4;stroke-opacity:1;stroke-dasharray:none" />
  <path
   class="fil0 str0"
   d="m 6296,11036 725,0 c -9,-53 -13,-109 -13,-168 l 0,-35 -718,0 0,96 c 0,37 3,72 6,107 z"
   id="path24"
   style="fill:#000000;fill-opacity:1;fill-rule:nonzero;stroke:#000000;stroke-width:0.96120894;stroke-miterlimit:4;stroke-opacity:1;stroke-dasharray:none"
   inkscape:connector-curvature="0" />
  <path
   class="fil0 str0"
   d="m 6360,11332 819,0 c -64,-51 -107,-121 -135,-203 l -736,0 c 11,72 28,140 52,203 z"
   id="path26"
   style="fill:#000000;fill-opacity:1;fill-rule:nonzero;stroke:#000000;stroke-width:0.96120894;stroke-miterlimit:4;stroke-opacity:1;stroke-dasharray:none"
   inkscape:connector-curvature="0" />
  <path
   class="fil0 str0"
   d="m 8611,11425 -2210,0 c 38,76 86,143 140,203 l 1930,0 c 54,-60 101,-127 140,-203 z"
   id="path28"
   style="fill:#000000;fill-opacity:1;fill-rule:nonzero;stroke:#000000;stroke-width:0.96120894;stroke-miterlimit:4;stroke-opacity:1;stroke-dasharray:none"
   inkscape:connector-curvature="0" />
  <path
   class="fil0 str0"
   d="m 8704,11129 -737,0 c -27,82 -71,152 -135,203 l 820,0 c 23,-63 40,-131 52,-203 z"
   id="path30"
   style="fill:#000000;fill-opacity:1;fill-rule:nonzero;stroke:#000000;stroke-width:0.96120894;stroke-miterlimit:4;stroke-opacity:1;stroke-dasharray:none"
   inkscape:connector-curvature="0" />
  <polygon
   class="fil0 str0"
   points="8004,9058 8004,9260 8722,9260 8722,9058 "
   id="polygon32"
   style="fill:#000000;fill-opacity:1;fill-rule:nonzero;stroke:#000000;stroke-width:0.96120894;stroke-miterlimit:4;stroke-opacity:1;stroke-dasharray:none" />
  <polygon
   class="fil0 str0"
   points="8004,9353 8004,9556 8722,9556 8722,9353 "
   id="polygon34"
   style="fill:#000000;fill-opacity:1;fill-rule:nonzero;stroke:#000000;stroke-width:0.96120894;stroke-miterlimit:4;stroke-opacity:1;stroke-dasharray:none" />
  <polygon
   class="fil0 str0"
   points="8004,9649 8004,9852 8722,9852 8722,9649 "
   id="polygon36"
   style="fill:#000000;fill-opacity:1;fill-rule:nonzero;stroke:#000000;stroke-width:0.96120894;stroke-miterlimit:4;stroke-opacity:1;stroke-dasharray:none" />
  <polygon
   class="fil0 str0"
   points="8004,9945 8004,10148 8722,10148 8722,9945 "
   id="polygon38"
   style="fill:#000000;fill-opacity:1;fill-rule:nonzero;stroke:#000000;stroke-width:0.96120894;stroke-miterlimit:4;stroke-opacity:1;stroke-dasharray:none" />
  <polygon
   class="fil0 str0"
   points="8004,10241 8004,10444 8722,10444 8722,10241 "
   id="polygon40"
   style="fill:#000000;fill-opacity:1;fill-rule:nonzero;stroke:#000000;stroke-width:0.96120894;stroke-miterlimit:4;stroke-opacity:1;stroke-dasharray:none" />
  <polygon
   class="fil0 str0"
   points="8004,10537 8004,10740 8722,10740 8722,10537 "
   id="polygon42"
   style="fill:#000000;fill-opacity:1;fill-rule:nonzero;stroke:#000000;stroke-width:0.96120894;stroke-miterlimit:4;stroke-opacity:1;stroke-dasharray:none" />
  <path
   class="fil0 str0"
   d="m 8722,10929 0,-96 -718,0 0,35 c 0,59 -5,115 -14,168 l 726,0 c 3,-35 6,-70 6,-107 z"
   id="path44"
   style="fill:#000000;fill-opacity:1;fill-rule:nonzero;stroke:#000000;stroke-width:0.96120894;stroke-miterlimit:4;stroke-opacity:1;stroke-dasharray:none"
   inkscape:connector-curvature="0" />
  <polygon
   class="fil0 str0"
   points="4297,11624 4360,11425 3621,11425 3547,11628 4298,11628 4299,11624 "
   id="polygon46"
   style="fill:#000000;fill-opacity:1;fill-rule:nonzero;stroke:#000000;stroke-width:0.96120894;stroke-miterlimit:4;stroke-opacity:1;stroke-dasharray:none" />
  <polygon
   class="fil0 str0"
   points="4268,11721 3512,11721 3437,11924 4203,11924 "
   id="polygon48"
   style="fill:#000000;fill-opacity:1;fill-rule:nonzero;stroke:#000000;stroke-width:0.96120894;stroke-miterlimit:4;stroke-opacity:1;stroke-dasharray:none" />
  <polygon
   class="fil0 str0"
   points="1960,11721 1960,11924 2677,11924 2677,11721 "
   id="polygon50"
   style="fill:#000000;fill-opacity:1;fill-rule:nonzero;stroke:#000000;stroke-width:0.96120894;stroke-miterlimit:4;stroke-opacity:1;stroke-dasharray:none" />
  <polygon
   class="fil0 str0"
   points="1960,11425 1960,11628 2677,11628 2677,11425 "
   id="polygon52"
   style="fill:#000000;fill-opacity:1;fill-rule:nonzero;stroke:#000000;stroke-width:0.96120894;stroke-miterlimit:4;stroke-opacity:1;stroke-dasharray:none" />
  <polygon
   class="fil0 str0"
   points="1960,11129 1960,11332 2677,11332 2677,11129 "
   id="polygon54"
   style="fill:#000000;fill-opacity:1;fill-rule:nonzero;stroke:#000000;stroke-width:0.96120894;stroke-miterlimit:4;stroke-opacity:1;stroke-dasharray:none" />
  <polygon
   class="fil0 str0"
   points="1960,10833 1960,11036 2677,11036 2677,10833 "
   id="polygon56"
   style="fill:#000000;fill-opacity:1;fill-rule:nonzero;stroke:#000000;stroke-width:0.96120894;stroke-miterlimit:4;stroke-opacity:1;stroke-dasharray:none" />
  <polygon
   class="fil0 str0"
   points="1960,9945 1960,10148 2677,10148 2677,9945 "
   id="polygon58"
   style="fill:#000000;fill-opacity:1;fill-rule:nonzero;stroke:#000000;stroke-width:0.96120894;stroke-miterlimit:4;stroke-opacity:1;stroke-dasharray:none" />
  <polygon
   class="fil0 str0"
   points="1960,9649 1960,9852 2677,9852 2677,9649 "
   id="polygon60"
   style="fill:#000000;fill-opacity:1;fill-rule:nonzero;stroke:#000000;stroke-width:0.96120894;stroke-miterlimit:4;stroke-opacity:1;stroke-dasharray:none" />
  <polygon
   class="fil0 str0"
   points="1960,9058 1960,9260 4153,9260 4153,9058 "
   id="polygon62"
   style="fill:#000000;fill-opacity:1;fill-rule:nonzero;stroke:#000000;stroke-width:0.96120894;stroke-miterlimit:4;stroke-opacity:1;stroke-dasharray:none" />
  <polygon
   class="fil0 str0"
   points="1960,9353 1960,9556 4153,9556 4153,9353 "
   id="polygon64"
   style="fill:#000000;fill-opacity:1;fill-rule:nonzero;stroke:#000000;stroke-width:0.96120894;stroke-miterlimit:4;stroke-opacity:1;stroke-dasharray:none" />
  <polygon
   class="fil0 str0"
   points="4754,10148 4815,9945 4168,9945 4093,10148 "
   id="polygon66"
   style="fill:#000000;fill-opacity:1;fill-rule:nonzero;stroke:#000000;stroke-width:0.96120894;stroke-miterlimit:4;stroke-opacity:1;stroke-dasharray:none" />
  <polygon
   class="fil0 str0"
   points="4496,9058 4421,9260 5314,9260 5238,9058 "
   id="polygon68"
   style="fill:#000000;fill-opacity:1;fill-rule:nonzero;stroke:#000000;stroke-width:0.96120894;stroke-miterlimit:4;stroke-opacity:1;stroke-dasharray:none" />
  <polygon
   class="fil0 str0"
   points="4386,9353 4312,9556 5426,9556 5349,9353 "
   id="polygon70"
   style="fill:#000000;fill-opacity:1;fill-rule:nonzero;stroke:#000000;stroke-width:0.96120894;stroke-miterlimit:4;stroke-opacity:1;stroke-dasharray:none" />
  <polygon
   class="fil0 str0"
   points="4277,9649 4202,9852 4843,9852 4871,9759 4879,9759 4907,9852 5538,9852 5461,9649 "
   id="polygon72"
   style="fill:#000000;fill-opacity:1;fill-rule:nonzero;stroke:#000000;stroke-width:0.96120894;stroke-miterlimit:4;stroke-opacity:1;stroke-dasharray:none" />
  <polygon
   class="fil0 str0"
   points="4935,9945 4995,10148 5650,10148 5573,9945 "
   id="polygon74"
   style="fill:#000000;fill-opacity:1;fill-rule:nonzero;stroke:#000000;stroke-width:0.96120894;stroke-miterlimit:4;stroke-opacity:1;stroke-dasharray:none" />
  <polygon
   class="fil0 str0"
   points="5023,10241 5084,10444 5762,10444 5685,10241 "
   id="polygon76"
   style="fill:#000000;fill-opacity:1;fill-rule:nonzero;stroke:#000000;stroke-width:0.96120894;stroke-miterlimit:4;stroke-opacity:1;stroke-dasharray:none" />
  <polygon
   class="fil0 str0"
   points="5112,10537 5172,10740 5873,10740 5797,10537 "
   id="polygon78"
   style="fill:#000000;fill-opacity:1;fill-rule:nonzero;stroke:#000000;stroke-width:0.96120894;stroke-miterlimit:4;stroke-opacity:1;stroke-dasharray:none" />
  <polygon
   class="fil0 str0"
   points="3840,10833 3765,11036 5985,11036 5908,10833 "
   id="polygon80"
   style="fill:#000000;fill-opacity:1;fill-rule:nonzero;stroke:#000000;stroke-width:0.96120894;stroke-miterlimit:4;stroke-opacity:1;stroke-dasharray:none" />
  <polygon
   class="fil0 str0"
   points="3731,11129 3656,11332 6097,11332 6020,11129 "
   id="polygon82"
   style="fill:#000000;fill-opacity:1;fill-rule:nonzero;stroke:#000000;stroke-width:0.96120894;stroke-miterlimit:4;stroke-opacity:1;stroke-dasharray:none" />
  <polygon
   class="fil0 str0"
   points="5391,11425 5458,11628 6209,11628 6132,11425 "
   id="polygon84"
   style="fill:#000000;fill-opacity:1;fill-rule:nonzero;stroke:#000000;stroke-width:0.96120894;stroke-miterlimit:4;stroke-opacity:1;stroke-dasharray:none" />
  <polygon
   class="fil0 str0"
   points="5551,11924 6320,11924 6244,11721 5485,11721 "
   id="polygon86"
   style="fill:#000000;fill-opacity:1;fill-rule:nonzero;stroke:#000000;stroke-width:0.96120894;stroke-miterlimit:4;stroke-opacity:1;stroke-dasharray:none" />
  <polygon
   class="fil0 str0"
   points="4638,10538 1960,10538 1960,10741 4577,10741 "
   id="polygon88"
   style="fill:#000000;fill-opacity:1;fill-rule:nonzero;stroke:#000000;stroke-width:0.96120894;stroke-miterlimit:4;stroke-opacity:1;stroke-dasharray:none" />
  <polygon
   class="fil0 str0"
   points="4727,10240 1960,10240 1960,10443 4666,10443 "
   id="polygon90"
   style="fill:#000000;fill-opacity:1;fill-rule:nonzero;stroke:#000000;stroke-width:0.96120894;stroke-miterlimit:4;stroke-opacity:1;stroke-dasharray:none" />
  <path
   class="fil0 str0"
   d="m 24248,10793 561,-1505 561,1505 -1122,0 z m -430,1130 339,-900 1305,0 330,900 279,0 -1099,-2865 -306,0 -1035,2634 -1463,0 0,-2634 -270,0 0,2865 1920,0 z"
   id="path92"
   style="fill:#000000;fill-opacity:1;fill-rule:nonzero;stroke:#000000;stroke-width:0.96120894;stroke-miterlimit:4;stroke-opacity:1;stroke-dasharray:none"
   inkscape:connector-curvature="0" />
  <path
   class="fil0 str0"
   d="m 19853,10661 0,764 696,0 c 124,0 220,-17 290,-50 125,-62 188,-182 188,-358 0,-149 -61,-251 -183,-307 -68,-31 -163,-47 -286,-49 l -705,0 z m 0,-1106 0,632 696,0 c 125,0 226,-24 303,-71 78,-47 117,-131 117,-252 0,-133 -52,-221 -154,-264 -89,-30 -202,-45 -339,-45 l -623,0 z m 1556,-192 c 87,122 131,267 131,437 0,175 -44,316 -133,422 -49,60 -122,114 -218,163 146,53 257,138 331,253 74,115 111,255 111,420 0,170 -42,322 -127,457 -54,89 -122,164 -203,225 -91,70 -199,118 -324,144 -124,26 -259,39 -405,39 l -1291,0 0,-2865 1385,0 c 349,5 597,106 743,305 z"
   id="path94"
   style="fill:#000000;fill-opacity:1;fill-rule:nonzero;stroke:#000000;stroke-width:0.96120894;stroke-miterlimit:4;stroke-opacity:1;stroke-dasharray:none"
   inkscape:connector-curvature="0" />
  <path
   class="fil0 str0"
   d="m 17385,10835 320,-1072 330,1072 -650,0 z m 683,-1772 -740,0 -436,1180 -1379,0 0,-682 1473,0 0,-498 -2189,0 0,2860 716,0 0,-1181 1195,0 -436,1181 764,0 181,-591 982,0 182,591 768,0 -1081,-2860 z"
   id="path96"
   style="fill:#000000;fill-opacity:1;fill-rule:nonzero;stroke:#000000;stroke-width:0.96120894;stroke-miterlimit:4;stroke-opacity:1;stroke-dasharray:none"
   inkscape:connector-curvature="0" />
  <path
   class="fil0 str0"
   d="m 26468,11692 688,0 c 149,0 278,-7 388,-20 110,-13 201,-40 273,-81 71,-42 125,-100 161,-176 36,-75 54,-175 54,-300 0,-119 -20,-216 -60,-289 -40,-72 -97,-129 -171,-169 -75,-39 -163,-67 -267,-81 -103,-15 -219,-22 -346,-22 l -720,0 0,1138 z m 0,-1369 684,0 c 141,0 259,-12 354,-36 96,-24 173,-59 231,-105 58,-47 100,-104 125,-171 26,-68 38,-146 38,-233 0,-90 -14,-167 -44,-229 -29,-62 -75,-113 -139,-151 -64,-39 -146,-66 -249,-84 -102,-17 -227,-26 -376,-26 l -624,0 0,1035 z m -271,1600 0,-2865 1035,0 c 167,0 310,17 429,51 120,35 217,84 293,148 76,63 131,139 165,228 35,89 52,187 52,293 0,101 -13,188 -40,261 -26,73 -61,134 -103,183 -43,49 -91,87 -146,115 -54,28 -111,47 -169,58 l 0,8 c 199,29 347,107 444,234 97,128 145,287 145,478 0,149 -23,275 -69,378 -47,104 -111,187 -193,251 -83,63 -182,109 -297,137 -115,28 -241,42 -376,42 l -1170,0 z"
   id="path98"
   style="fill:#000000;fill-opacity:1;fill-rule:nonzero;stroke:#000000;stroke-width:0.96120894;stroke-miterlimit:4;stroke-opacity:1;stroke-dasharray:none"
   inkscape:connector-curvature="0" />
  <path
   class="fil0 str0"
   d="m 11739,12724 -502,-290 0,-570 c 18,-7 35,-15 52,-25 276,-161 305,-625 65,-1039 -241,-413 -659,-619 -934,-459 -276,160 -305,625 -65,1039 36,61 75,117 117,168 l 0,444 -584,-337 0,-2138 -214,-124 c -182,342 -288,731 -288,1145 0,1316 1047,2388 2353,2430 l 0,-244 z"
   id="path100"
   style="fill:#000000;fill-opacity:1;fill-rule:nonzero;stroke:#000000;stroke-width:0.96120894;stroke-miterlimit:4;stroke-opacity:1;stroke-dasharray:none"
   inkscape:connector-curvature="0" />
  <path
   class="fil0 str0"
   d="m 13963,9394 -214,124 0,676 -403,229 c -29,-35 -63,-64 -103,-87 -275,-160 -694,46 -934,459 -240,413 -211,878 64,1039 276,160 694,-46 934,-459 52,-90 92,-181 119,-272 l 323,-187 0,739 -1848,1067 0,246 c 1305,-44 2349,-1115 2349,-2430 0,-414 -105,-803 -287,-1144 z"
   id="path102"
   style="fill:#000000;fill-opacity:1;fill-rule:nonzero;stroke:#000000;stroke-width:0.96120894;stroke-miterlimit:4;stroke-opacity:1;stroke-dasharray:none"
   inkscape:connector-curvature="0" />
  <path
   class="fil0 str0"
   d="m 9972,9378 576,-333 370,214 c -14,40 -21,82 -21,125 0,318 388,577 866,577 478,0 866,-259 866,-577 0,-319 -388,-578 -866,-578 -107,0 -209,13 -303,37 l -283,-161 641,-370 1847,1066 c 80,-46 153,-88 217,-124 -430,-689 -1192,-1148 -2064,-1148 -870,0 -1633,459 -2062,1147 65,38 137,79 216,125 z"
   id="path104"
   style="fill:#000000;fill-opacity:1;fill-rule:nonzero;stroke:#000000;stroke-width:0.96120894;stroke-miterlimit:4;stroke-opacity:1;stroke-dasharray:none"
   inkscape:connector-curvature="0" />
 </g>
</svg>