<?xml version="1.0" encoding="UTF-8" standalone="no"?>
<!-- Created with Inkscape (http://www.inkscape.org/) -->

<svg
   xmlns:dc="http://purl.org/dc/elements/1.1/"
   xmlns:cc="http://creativecommons.org/ns#"
   xmlns:rdf="http://www.w3.org/1999/02/22-rdf-syntax-ns#"
   xmlns:svg="http://www.w3.org/2000/svg"
   xmlns="http://www.w3.org/2000/svg"
   xmlns:sodipodi="http://sodipodi.sourceforge.net/DTD/sodipodi-0.dtd"
   xmlns:inkscape="http://www.inkscape.org/namespaces/inkscape"
   version="1.1"
   id="svg2"
   xml:space="preserve"
   width="944.88"
   height="188.97333"
   viewBox="0 0 944.88 188.97333"
   sodipodi:docname="fablab_logo_farbe.svg"
   inkscape:version="0.92.1 r15371"
   inkscape:export-filename="C:\Users\user\Dropbox\FabLab\Logo\fablab_logo_farbe.png"
   inkscape:export-xdpi="300"
   inkscape:export-ydpi="300"><metadata
     id="metadata8"><rdf:RDF><cc:Work
         rdf:about=""><dc:format>image/svg+xml</dc:format><dc:type
           rdf:resource="http://purl.org/dc/dcmitype/StillImage" /><dc:title /></cc:Work></rdf:RDF></metadata><defs
     id="defs6"><clipPath
       clipPathUnits="userSpaceOnUse"
       id="clipPath18"><path
         d="M 0,141.73 H 708.66 V 0 H 0 Z"
         id="path16"
         inkscape:connector-curvature="0" /></clipPath></defs><sodipodi:namedview
     pagecolor="#ffffff"
     bordercolor="#666666"
     borderopacity="1"
     objecttolerance="10"
     gridtolerance="10"
     guidetolerance="10"
     inkscape:pageopacity="0"
     inkscape:pageshadow="2"
     inkscape:window-width="1366"
     inkscape:window-height="715"
     id="namedview4"
     showgrid="false"
     inkscape:zoom="0.81915163"
     inkscape:cx="472.44"
     inkscape:cy="94.486664"
     inkscape:window-x="-8"
     inkscape:window-y="-8"
     inkscape:window-maximized="1"
     inkscape:current-layer="g10" /><g
     id="g10"
     inkscape:groupmode="layer"
     inkscape:label="logo"
     transform="matrix(1.3333333,0,0,-1.3333333,0,188.97333)"><path
       inkscape:connector-curvature="0"
       id="path22"
       style="fill:#1e3f6d;fill-opacity:1;fill-rule:nonzero;stroke:none"
       d="m 193.1807,42.0947 h -41.382 c 2.543,-2.131 5.486,-3.729 8.602,-4.84 h 24.156 c 3.127,1.111 6.075,2.709 8.624,4.84" /><path
       d="m 143.487,100.799 h 17.124 v 4.84 h -17.124 z"
       style="fill:#1e3f6d;fill-opacity:1;fill-rule:nonzero;stroke:none"
       id="path24"
       inkscape:connector-curvature="0" /><path
       d="m 143.487,93.74 h 17.124 v 4.838 h -17.124 z"
       style="fill:#1e3f6d;fill-opacity:1;fill-rule:nonzero;stroke:none"
       id="path26"
       inkscape:connector-curvature="0" /><path
       d="m 143.487,86.68 h 17.124 v 4.838 h -17.124 z"
       style="fill:#1e3f6d;fill-opacity:1;fill-rule:nonzero;stroke:none"
       id="path28"
       inkscape:connector-curvature="0" /><path
       d="m 143.487,79.619 h 17.124 v 4.838 h -17.124 z"
       style="fill:#1e3f6d;fill-opacity:1;fill-rule:nonzero;stroke:none"
       id="path30"
       inkscape:connector-curvature="0" /><path
       d="m 143.487,72.559 h 17.124 v 4.838 h -17.124 z"
       style="fill:#1e3f6d;fill-opacity:1;fill-rule:nonzero;stroke:none"
       id="path32"
       inkscape:connector-curvature="0" /><path
       d="m 143.487,65.498 h 17.124 v 4.838 h -17.124 z"
       style="fill:#1e3f6d;fill-opacity:1;fill-rule:nonzero;stroke:none"
       id="path34"
       inkscape:connector-curvature="0" /><path
       inkscape:connector-curvature="0"
       id="path38"
       style="fill:#1e3f6d;fill-opacity:1;fill-rule:nonzero;stroke:none"
       d="m 143.625,58.4375 h 17.308 c -0.217,1.252 -0.321,2.592 -0.321,4 v 0.838 h -17.125 v -2.279 c 0,-0.889 0.067,-1.723 0.138,-2.559" /><path
       inkscape:connector-curvature="0"
       id="path42"
       style="fill:#1e3f6d;fill-opacity:1;fill-rule:nonzero;stroke:none"
       d="m 145.1553,51.3799 h 19.531 c -1.521,1.215 -2.554,2.87 -3.2,4.837 h -17.58 c 0.28,-1.725 0.686,-3.35 1.249,-4.837" /><path
       inkscape:connector-curvature="0"
       id="path46"
       style="fill:#1e3f6d;fill-opacity:1;fill-rule:nonzero;stroke:none"
       d="m 198.8613,49.1553 h -52.736 c 0.92,-1.809 2.053,-3.412 3.344,-4.838 h 46.048 c 1.289,1.426 2.428,3.029 3.344,4.838" /><path
       inkscape:connector-curvature="0"
       id="path50"
       style="fill:#1e3f6d;fill-opacity:1;fill-rule:nonzero;stroke:none"
       d="m 201.0859,56.2188 h -17.584 c -0.648,-1.969 -1.69,-3.622 -3.219,-4.839 h 19.55 c 0.565,1.487 0.969,3.112 1.253,4.839" /><path
       d="m 184.377,100.799 h 17.125 v 4.84 h -17.125 z"
       style="fill:#1e3f6d;fill-opacity:1;fill-rule:nonzero;stroke:none"
       id="path52"
       inkscape:connector-curvature="0" /><path
       d="m 184.377,93.74 h 17.125 v 4.838 h -17.125 z"
       style="fill:#1e3f6d;fill-opacity:1;fill-rule:nonzero;stroke:none"
       id="path54"
       inkscape:connector-curvature="0" /><path
       d="m 184.377,86.68 h 17.125 v 4.838 h -17.125 z"
       style="fill:#1e3f6d;fill-opacity:1;fill-rule:nonzero;stroke:none"
       id="path56"
       inkscape:connector-curvature="0" /><path
       d="m 184.377,79.619 h 17.125 v 4.838 h -17.125 z"
       style="fill:#1e3f6d;fill-opacity:1;fill-rule:nonzero;stroke:none"
       id="path58"
       inkscape:connector-curvature="0" /><path
       d="m 184.377,72.559 h 17.125 v 4.838 h -17.125 z"
       style="fill:#1e3f6d;fill-opacity:1;fill-rule:nonzero;stroke:none"
       id="path60"
       inkscape:connector-curvature="0" /><path
       d="m 184.377,65.498 h 17.125 v 4.838 h -17.125 z"
       style="fill:#1e3f6d;fill-opacity:1;fill-rule:nonzero;stroke:none"
       id="path62"
       inkscape:connector-curvature="0" /><path
       inkscape:connector-curvature="0"
       id="path66"
       style="fill:#1e3f6d;fill-opacity:1;fill-rule:nonzero;stroke:none"
       d="m 201.5029,60.9961 v 2.279 h -17.126 v -0.84 c 0,-1.406 -0.103,-2.744 -0.32,-3.998 h 17.307 c 0.071,0.834 0.139,1.67 0.139,2.559" /><path
       inkscape:connector-curvature="0"
       id="path70"
       style="fill:#1e3f6d;fill-opacity:1;fill-rule:nonzero;stroke:none"
       d="m 78.0234,44.3174 h 17.936 l 0.029,0.088 h -0.051 l 1.485,4.752 h -17.613 z" /><path
       inkscape:connector-curvature="0"
       id="path74"
       style="fill:#1e3f6d;fill-opacity:1;fill-rule:nonzero;stroke:none"
       d="m 77.2012,42.0947 -1.785,-4.84 h 18.272 l 1.557,4.84 z" /><path
       d="m 40.156,37.255 h 17.125 v 4.84 H 40.156 Z"
       style="fill:#1e3f6d;fill-opacity:1;fill-rule:nonzero;stroke:none"
       id="path76"
       inkscape:connector-curvature="0" /><path
       d="m 40.156,44.317 h 17.125 v 4.838 H 40.156 Z"
       style="fill:#1e3f6d;fill-opacity:1;fill-rule:nonzero;stroke:none"
       id="path78"
       inkscape:connector-curvature="0" /><path
       d="m 40.156,51.38 h 17.125 v 4.837 H 40.156 Z"
       style="fill:#1e3f6d;fill-opacity:1;fill-rule:nonzero;stroke:none"
       id="path80"
       inkscape:connector-curvature="0" /><path
       d="m 40.156,58.438 h 17.125 v 4.838 H 40.156 Z"
       style="fill:#1e3f6d;fill-opacity:1;fill-rule:nonzero;stroke:none"
       id="path82"
       inkscape:connector-curvature="0" /><path
       d="m 40.156,79.619 h 17.125 v 4.838 H 40.156 Z"
       style="fill:#1e3f6d;fill-opacity:1;fill-rule:nonzero;stroke:none"
       id="path84"
       inkscape:connector-curvature="0" /><path
       d="m 40.156,86.68 h 17.125 v 4.838 H 40.156 Z"
       style="fill:#1e3f6d;fill-opacity:1;fill-rule:nonzero;stroke:none"
       id="path86"
       inkscape:connector-curvature="0" /><path
       d="m 40.156,100.799 h 52.339 v 4.84 H 40.156 Z"
       style="fill:#1e3f6d;fill-opacity:1;fill-rule:nonzero;stroke:none"
       id="path88"
       inkscape:connector-curvature="0" /><path
       d="m 40.156,93.74 h 52.339 v 4.838 H 40.156 Z"
       style="fill:#1e3f6d;fill-opacity:1;fill-rule:nonzero;stroke:none"
       id="path90"
       inkscape:connector-curvature="0" /><path
       inkscape:connector-curvature="0"
       id="path94"
       style="fill:#1e3f6d;fill-opacity:1;fill-rule:nonzero;stroke:none"
       d="m 108.2939,84.457 h -15.444 l -1.788,-4.838 h 15.781 z" /><path
       inkscape:connector-curvature="0"
       id="path98"
       style="fill:#1e3f6d;fill-opacity:1;fill-rule:nonzero;stroke:none"
       d="m 98.8857,100.7988 h 21.318 l -1.828,4.84 h -17.702 z" /><path
       inkscape:connector-curvature="0"
       id="path102"
       style="fill:#1e3f6d;fill-opacity:1;fill-rule:nonzero;stroke:none"
       d="m 96.2783,93.7402 h 26.594 l -1.829,4.838 h -22.979 z" /><path
       inkscape:connector-curvature="0"
       id="path106"
       style="fill:#1e3f6d;fill-opacity:1;fill-rule:nonzero;stroke:none"
       d="m 110.4756,86.6797 h 15.063 l -1.828,4.838 h -28.254 l -1.787,-4.838 h 15.288 l 0.664,2.217 h 0.191 z" /><path
       inkscape:connector-curvature="0"
       id="path110"
       style="fill:#1e3f6d;fill-opacity:1;fill-rule:nonzero;stroke:none"
       d="m 112.5908,79.6191 h 15.615 l -1.827,4.838 h -15.236 z" /><path
       inkscape:connector-curvature="0"
       id="path114"
       style="fill:#1e3f6d;fill-opacity:1;fill-rule:nonzero;stroke:none"
       d="m 114.7031,72.5586 h 16.171 l -1.827,4.838 h -15.79 z" /><path
       inkscape:connector-curvature="0"
       id="path118"
       style="fill:#1e3f6d;fill-opacity:1;fill-rule:nonzero;stroke:none"
       d="m 116.8174,65.498 h 16.725 l -1.829,4.84 h -16.346 z" /><path
       inkscape:connector-curvature="0"
       id="path122"
       style="fill:#1e3f6d;fill-opacity:1;fill-rule:nonzero;stroke:none"
       d="m 83.2383,58.4375 h 52.97 l -1.828,4.838 h -49.354 z" /><path
       inkscape:connector-curvature="0"
       id="path126"
       style="fill:#1e3f6d;fill-opacity:1;fill-rule:nonzero;stroke:none"
       d="m 80.6309,51.3799 h 58.245 l -1.829,4.837 h -54.63 z" /><path
       inkscape:connector-curvature="0"
       id="path130"
       style="fill:#1e3f6d;fill-opacity:1;fill-rule:nonzero;stroke:none"
       d="m 123.623,44.3174 h 17.923 l -1.83,4.838 h -17.672 z" /><path
       inkscape:connector-curvature="0"
       id="path134"
       style="fill:#1e3f6d;fill-opacity:1;fill-rule:nonzero;stroke:none"
       d="m 144.2109,37.2549 -1.827,4.84 h -18.098 l 1.555,-4.84 z" /><path
       inkscape:connector-curvature="0"
       id="path138"
       style="fill:#1e3f6d;fill-opacity:1;fill-rule:nonzero;stroke:none"
       d="m 40.1563,70.3145 v -4.836 h 62.462 l 1.448,4.836 z" /><path
       inkscape:connector-curvature="0"
       id="path142"
       style="fill:#1e3f6d;fill-opacity:1;fill-rule:nonzero;stroke:none"
       d="m 40.1563,77.416 v -4.838 h 64.575 l 1.447,4.838 z" /><path
       inkscape:connector-curvature="0"
       id="path146"
       style="fill:#1e3f6d;fill-opacity:1;fill-rule:nonzero;stroke:none"
       d="m 571.9795,64.2393 13.388,35.891 13.389,-35.891 z m -10.255,-26.969 8.07,21.46 h 31.147 l 7.881,-21.46 h 6.646 l -26.208,68.368 h -7.31 l -24.709,-62.861 h -34.886 v 62.861 h -6.458 v -68.368 z" /><path
       inkscape:connector-curvature="0"
       id="path150"
       style="fill:#1e3f6d;fill-opacity:1;fill-rule:nonzero;stroke:none"
       d="m 467.1035,67.3721 v -18.228 h 16.6 c 2.963,0 5.271,0.402 6.921,1.207 2.996,1.483 4.495,4.328 4.495,8.534 0,3.554 -1.453,5.999 -4.356,7.328 -1.622,0.742 -3.898,1.128 -6.832,1.159 z m 0,26.394 v -15.075 h 16.617 c 2.968,0 5.378,0.563 7.23,1.692 1.85,1.128 2.776,3.132 2.776,6.007 0,3.184 -1.224,5.289 -3.672,6.308 -2.111,0.711 -4.805,1.068 -8.079,1.068 z m 37.122,4.591 c 2.091,-2.907 3.139,-6.386 3.139,-10.436 0,-4.176 -1.057,-7.53 -3.167,-10.066 -1.179,-1.422 -2.918,-2.72 -5.214,-3.896 3.488,-1.268 6.121,-3.277 7.897,-6.029 1.776,-2.752 2.662,-6.092 2.662,-10.02 0,-4.05 -1.012,-7.683 -3.043,-10.898 -1.292,-2.134 -2.906,-3.927 -4.841,-5.381 -2.184,-1.67 -4.758,-2.814 -7.724,-3.434 -2.969,-0.617 -6.188,-0.926 -9.662,-0.926 h -30.805 v 68.368 h 33.039 c 8.337,-0.125 14.243,-2.552 17.719,-7.282" /><path
       inkscape:connector-curvature="0"
       id="path154"
       style="fill:#1e3f6d;fill-opacity:1;fill-rule:nonzero;stroke:none"
       d="m 408.2168,63.2324 7.648,25.568 7.873,-25.568 z m 16.306,42.272 h -17.663 l -10.403,-28.16 h -32.896 v 16.289 h 35.137 v 11.871 h -52.226 v -68.235 h 17.089 v 28.183 l 28.5,-0.014 -10.405,-28.169 h 18.233 l 4.326,14.095 h 23.437 l 4.32,-14.095 h 18.329 z" /><path
       inkscape:connector-curvature="0"
       id="path158"
       style="fill:#1e3f6d;fill-opacity:1;fill-rule:nonzero;stroke:none"
       d="m 624.9346,42.7793 h 16.428 c 3.544,0 6.63,0.157 9.257,0.475 2.626,0.315 4.794,0.964 6.503,1.945 1.711,0.981 2.992,2.374 3.848,4.178 0.854,1.805 1.281,4.193 1.281,7.169 0,2.848 -0.475,5.144 -1.425,6.885 -0.949,1.739 -2.31,3.086 -4.081,4.035 -1.774,0.951 -3.894,1.597 -6.363,1.947 -2.469,0.346 -5.222,0.521 -8.261,0.521 h -17.187 z m 0,32.662 h 16.332 c 3.355,0 6.173,0.286 8.451,0.857 2.28,0.568 4.114,1.407 5.508,2.515 1.392,1.108 2.389,2.468 2.99,4.084 0.602,1.613 0.903,3.464 0.903,5.554 0,2.15 -0.348,3.972 -1.044,5.46 -0.699,1.486 -1.804,2.689 -3.325,3.607 -1.519,0.918 -3.498,1.582 -5.934,1.996 -2.438,0.411 -5.429,0.616 -8.972,0.616 h -14.909 z m -6.456,-38.171 v 68.368 h 24.688 c 3.988,0 7.406,-0.413 10.254,-1.235 2.85,-0.823 5.176,-1.994 6.98,-3.513 1.805,-1.519 3.117,-3.339 3.94,-5.46 0.823,-2.121 1.235,-4.448 1.235,-6.979 0,-2.408 -0.317,-4.48 -0.95,-6.221 -0.632,-1.741 -1.458,-3.196 -2.467,-4.366 -1.014,-1.172 -2.17,-2.09 -3.468,-2.754 -1.297,-0.665 -2.644,-1.124 -4.034,-1.376 v -0.191 c 4.747,-0.698 8.275,-2.564 10.588,-5.603 2.308,-3.039 3.464,-6.836 3.464,-11.394 0,-3.544 -0.554,-6.552 -1.662,-9.021 -1.107,-2.468 -2.644,-4.462 -4.604,-5.981 -1.963,-1.519 -4.321,-2.612 -7.075,-3.276 -2.753,-0.667 -5.745,-0.998 -8.973,-0.998 z" /><g
       id="g4535"><path
         d="m 273.4966,18.1611 -11.973,6.911 v 13.605 c 0.428,0.172 0.843,0.367 1.247,0.604 6.574,3.822 7.265,14.914 1.533,24.781 -5.729,9.864 -15.707,14.766 -22.284,10.948 -6.578,-3.819 -7.266,-14.916 -1.534,-24.783 0.844,-1.451 1.779,-2.79 2.78,-4.012 v -10.605 l -13.93,8.042 v 51.03 l -5.102,2.945 c -4.358,-8.147 -6.867,-17.429 -6.867,-27.312 0,-31.408 24.962,-56.974 56.13,-57.981 z"
         style="fill:#389e6b;fill-opacity:1;fill-rule:nonzero;stroke:none"
         id="path162"
         inkscape:connector-curvature="0" /><path
         d="m 326.563,97.6089 -5.112,-2.954 v -16.14 l -9.601,-5.447 c -0.7,0.815 -1.514,1.515 -2.455,2.062 -6.577,3.82 -16.557,-1.083 -22.287,-10.945 -5.727,-9.868 -5.044,-20.961 1.531,-24.784 6.58,-3.818 16.556,1.083 22.287,10.949 1.238,2.131 2.176,4.318 2.818,6.48 l 7.707,4.463 v -17.641 l -44.081,-25.45 v -5.865 c 31.134,1.043 56.052,26.595 56.052,57.979 0,9.876 -2.505,19.154 -6.859,27.293"
         style="fill:#1e3d67;fill-opacity:1;fill-rule:nonzero;stroke:none"
         id="path166"
         inkscape:connector-curvature="0" /><path
         d="m 231.3462,97.9946 13.746,7.935 8.809,-5.102 c -0.315,-0.956 -0.484,-1.949 -0.484,-2.969 0,-7.605 9.247,-13.77 20.658,-13.77 11.409,0 20.658,6.165 20.658,13.77 0,7.609 -9.249,13.771 -20.658,13.771 -2.545,0 -4.982,-0.307 -7.235,-0.87 l -6.745,3.832 15.302,8.832 44.07,-25.441 c 1.906,1.101 3.643,2.105 5.157,2.979 -10.244,16.425 -28.438,27.38 -49.227,27.38 -20.781,0 -38.973,-10.948 -49.221,-27.365 1.555,-0.897 3.288,-1.895 5.17,-2.982"
         style="fill:#c62032;fill-opacity:1;fill-rule:nonzero;stroke:none"
         id="path170"
         inkscape:connector-curvature="0" /></g></g></svg>