<?xml version="1.0" encoding="UTF-8" standalone="no"?>
<!-- Created with Inkscape (http://www.inkscape.org/) -->

<svg
   xmlns:dc="http://purl.org/dc/elements/1.1/"
   xmlns:cc="http://creativecommons.org/ns#"
   xmlns:rdf="http://www.w3.org/1999/02/22-rdf-syntax-ns#"
   xmlns:svg="http://www.w3.org/2000/svg"
   xmlns="http://www.w3.org/2000/svg"
   xmlns:sodipodi="http://sodipodi.sourceforge.net/DTD/sodipodi-0.dtd"
   xmlns:inkscape="http://www.inkscape.org/namespaces/inkscape"
   id="svg2"
   version="1.1"
   inkscape:version="0.47 r22583"
   width="141.57486"
   height="60.000004"
   xml:space="preserve"
   sodipodi:docname="fau-logo-fauonly-grid-corrected-2:1.svg"
   inkscape:export-filename="/home/cip/adm/snalwuer/.www/fau-logo-fauonly-grid-corrected-2:1-135px.png"
   inkscape:export-xdpi="209.78285"
   inkscape:export-ydpi="209.78285"><metadata
     id="metadata8"><rdf:RDF><cc:Work
         rdf:about=""><dc:format>image/svg+xml</dc:format><dc:type
           rdf:resource="http://purl.org/dc/dcmitype/StillImage" /><dc:title></dc:title></cc:Work></rdf:RDF></metadata><defs
     id="defs6"><inkscape:perspective
       sodipodi:type="inkscape:persp3d"
       inkscape:vp_x="0 : 0.5 : 1"
       inkscape:vp_y="0 : 1000 : 0"
       inkscape:vp_z="1 : 0.5 : 1"
       inkscape:persp3d-origin="0.5 : 0.33333333 : 1"
       id="perspective10" /><clipPath
       clipPathUnits="userSpaceOnUse"
       id="clipPath20"><path
         d="m 453.52,12829.4 3821.46,0 0,1569.8 -3821.46,0 0,-1569.8 z"
         id="path22" /></clipPath><clipPath
       clipPathUnits="userSpaceOnUse"
       id="clipPath110"><path
         d="m 0,0 10361.2,0 0,14669.6 L 0,14669.6 0,0 z"
         id="path112" /></clipPath><clipPath
       clipPathUnits="userSpaceOnUse"
       id="clipPath186"><path
         d="m 0,0 10362.5,0 0,14670 L 0,14670 0,0 z"
         id="path188" /></clipPath><clipPath
       clipPathUnits="userSpaceOnUse"
       id="clipPath200"><path
         d="m 5398.99,11537 3102.99,0 0,607.9 -3102.99,0 0,-607.9 z"
         id="path202" /></clipPath><clipPath
       clipPathUnits="userSpaceOnUse"
       id="clipPath296"><path
         d="m 1041.48,541.27 3182.01,0 0,840.64 -3182.01,0 0,-840.64 z"
         id="path298" /></clipPath><clipPath
       clipPathUnits="userSpaceOnUse"
       id="clipPath394"><path
         d="m 470.961,5503.29 3409.419,0 0,974.18 -3409.419,0 0,-974.18 z"
         id="path396" /></clipPath><clipPath
       clipPathUnits="userSpaceOnUse"
       id="clipPath406"><path
         d="m 471.293,5503.29 3409.087,0 0,974.18 -3409.087,0 0,-974.18 z"
         id="path408" /></clipPath><clipPath
       clipPathUnits="userSpaceOnUse"
       id="clipPath432"><path
         d="m 470.961,5503.29 3409.419,0 0,974.18 -3409.419,0 0,-974.18 z"
         id="path434" /></clipPath><clipPath
       clipPathUnits="userSpaceOnUse"
       id="clipPath494"><path
         d="m 471.293,5503.29 3409.087,0 0,974.18 -3409.087,0 0,-974.18 z"
         id="path496" /></clipPath><clipPath
       clipPathUnits="userSpaceOnUse"
       id="clipPath508"><path
         d="m 470.961,5503.29 3409.419,0 0,974.18 -3409.419,0 0,-974.18 z"
         id="path510" /></clipPath><clipPath
       clipPathUnits="userSpaceOnUse"
       id="clipPath526"><path
         d="m 5398.99,4712.26 3589.35,0 0,974.18 -3589.35,0 0,-974.18 z"
         id="path528" /></clipPath><clipPath
       clipPathUnits="userSpaceOnUse"
       id="clipPath538"><path
         d="m 5399.32,4712.26 3589.02,0 0,974.18 -3589.02,0 0,-974.18 z"
         id="path540" /></clipPath><clipPath
       clipPathUnits="userSpaceOnUse"
       id="clipPath564"><path
         d="m 5398.99,4712.26 3589.35,0 0,974.18 -3589.35,0 0,-974.18 z"
         id="path566" /></clipPath><clipPath
       clipPathUnits="userSpaceOnUse"
       id="clipPath626"><path
         d="m 5399.32,4712.26 3589.02,0 0,974.18 -3589.02,0 0,-974.18 z"
         id="path628" /></clipPath><clipPath
       clipPathUnits="userSpaceOnUse"
       id="clipPath640"><path
         d="m 5398.99,4712.26 3589.35,0 0,974.18 -3589.35,0 0,-974.18 z"
         id="path642" /></clipPath><clipPath
       clipPathUnits="userSpaceOnUse"
       id="clipPath658"><path
         d="m 3636.73,1840.24 3655.34,0 0,974.19 -3655.34,0 0,-974.19 z"
         id="path660" /></clipPath><clipPath
       clipPathUnits="userSpaceOnUse"
       id="clipPath758"><path
         d="m 1041.48,3537.56 3102.98,0 0,840.65 -3102.98,0 0,-840.65 z"
         id="path760" /></clipPath><clipPath
       clipPathUnits="userSpaceOnUse"
       id="clipPath856"><path
         d="m 0,0 10362.5,0 0,14670 L 0,14670 0,0 z"
         id="path858" /></clipPath><clipPath
       clipPathUnits="userSpaceOnUse"
       id="clipPath876"><path
         d="m 5398.99,10167.7 3102.99,0 0,607.9 -3102.99,0 0,-607.9 z"
         id="path878" /></clipPath><clipPath
       clipPathUnits="userSpaceOnUse"
       id="clipPath972"><path
         d="m 0,0 10361.2,0 0,14669.6 L 0,14669.6 0,0 z"
         id="path974" /></clipPath><clipPath
       clipPathUnits="userSpaceOnUse"
       id="clipPath982"><path
         d="m 0,0 10362.5,0 0,14670 L 0,14670 0,0 z"
         id="path984" /></clipPath></defs><sodipodi:namedview
     pagecolor="#ffffff"
     bordercolor="#666666"
     borderopacity="1"
     objecttolerance="10"
     gridtolerance="10"
     guidetolerance="10"
     inkscape:pageopacity="0"
     inkscape:pageshadow="2"
     inkscape:window-width="1918"
     inkscape:window-height="1198"
     id="namedview4"
     showgrid="true"
     inkscape:zoom="8"
     inkscape:cx="54.484397"
     inkscape:cy="11.867043"
     inkscape:window-x="0"
     inkscape:window-y="0"
     inkscape:window-maximized="0"
     inkscape:current-layer="g12"
     inkscape:object-paths="true"
     inkscape:snap-intersection-paths="true"
     inkscape:object-nodes="true"
     inkscape:snap-smooth-nodes="true"
     inkscape:snap-midpoints="true"
     inkscape:snap-object-midpoints="true"
     inkscape:snap-center="true"><inkscape:grid
       type="xygrid"
       id="grid2912" /></sodipodi:namedview><g
     id="g12"
     inkscape:groupmode="layer"
     inkscape:label="ink_ext_XXXXXX"
     transform="matrix(1.25,0,0,-1.25,-3.5222135,2976.0697)"><path
       id="path24"
       style="fill:#004171;fill-opacity:1;fill-rule:nonzero;stroke:none"
       d="m 106.6552,2337.6551 -28.080216,0 c 1.725692,-1.4075 3.722144,-2.4652 5.83633,-3.1993 l 16.391836,0 c 2.12161,0.7341 4.1231,1.7918 5.85205,3.1993" /><path
       id="path26"
       style="fill:#004171;fill-opacity:1;fill-rule:nonzero;stroke:none"
       d="m 28.513337,2339.2557 12.170585,0 0.01899,0.06 -0.03351,0 1.008012,3.1388 -11.952612,0 -1.211454,-3.1994" /><path
       id="path28"
       style="fill:#004171;fill-opacity:1;fill-rule:nonzero;stroke:none"
       d="m 27.955801,2337.6551 -1.212343,-3.1993 12.399827,0 1.056055,3.1993 -12.243539,0" /><path
       id="path30"
       style="fill:#004171;fill-opacity:1;fill-rule:nonzero;stroke:none"
       d="m 2.8177708,2334.4558 11.6208192,0 0,3.1997 -11.6208192,0 0,-3.1997 z" /><path
       id="path32"
       style="fill:#004171;fill-opacity:1;fill-rule:nonzero;stroke:none"
       d="m 2.8177708,2339.2557 11.6208192,0 0,3.2 -11.6208192,0 0,-3.2 z" /><path
       id="path34"
       style="fill:#004171;fill-opacity:1;fill-rule:nonzero;stroke:none"
       d="m 2.8177708,2344.0555 11.6208192,0 0,3.2 -11.6208192,0 0,-3.2 z" /><path
       id="path36"
       style="fill:#004171;fill-opacity:1;fill-rule:nonzero;stroke:none"
       d="m 2.8177708,2348.8583 11.6208192,0 0,3.1972 -11.6208192,0 0,-3.1972 z" /><path
       id="path38"
       style="fill:#004171;fill-opacity:1;fill-rule:nonzero;stroke:none"
       d="m 2.8177708,2363.2555 11.6208192,0 0,3.2 -11.6208192,0 0,-3.2 z" /><path
       id="path40"
       style="fill:#004171;fill-opacity:1;fill-rule:nonzero;stroke:none"
       d="m 2.8177708,2368.0555 11.6208192,0 0,3.2002 -11.6208192,0 0,-3.2002 z" /><path
       id="path42"
       style="fill:#004171;fill-opacity:1;fill-rule:nonzero;stroke:none"
       d="m 2.8177708,2377.6555 35.5156052,0 0,3.2003 -35.5156052,0 0,-3.2003 z" /><path
       id="path44"
       style="fill:#004171;fill-opacity:1;fill-rule:nonzero;stroke:none"
       d="m 2.8177708,2372.8555 35.5156052,0 0,3.2 -35.5156052,0 0,-3.2 z" /><path
       id="path46"
       style="fill:#004171;fill-opacity:1;fill-rule:nonzero;stroke:none"
       d="m 49.053479,2366.4554 -10.480185,0 -1.212343,-3.1999 10.708241,0 0.984287,3.1999" /><path
       id="path48"
       style="fill:#004171;fill-opacity:1;fill-rule:nonzero;stroke:none"
       d="m 42.669698,2377.6555 14.46597,0 -1.24022,3.1999 -12.012518,0 -1.213232,-3.1999" /><path
       id="path50"
       style="fill:#004171;fill-opacity:1;fill-rule:nonzero;stroke:none"
       d="m 40.901005,2372.8555 18.044874,0 -1.240813,3.1999 -15.59231,0 -1.211751,-3.1999" /><path
       id="path52"
       style="fill:#004171;fill-opacity:1;fill-rule:nonzero;stroke:none"
       d="m 50.534803,2368.0555 10.221584,0 -1.240814,3.2026 -19.172104,0 -1.212639,-3.2026 10.374016,0 0.449587,1.4683 0.130191,0 0.450179,-1.4683" /><path
       id="path54"
       style="fill:#004171;fill-opacity:1;fill-rule:nonzero;stroke:none"
       d="m 51.969567,2363.2555 10.596141,0 -1.24022,3.1999 -10.338131,0 0.98221,-3.1999" /><path
       id="path56"
       style="fill:#004171;fill-opacity:1;fill-rule:nonzero;stroke:none"
       d="m 53.403146,2358.4555 10.972773,0 -1.24022,3.1885 -10.714765,0 0.982212,-3.1885" /><path
       id="path58"
       style="fill:#004171;fill-opacity:1;fill-rule:nonzero;stroke:none"
       d="m 54.837613,2353.6555 11.34822,0 -1.240812,3.2153 -11.090805,0 0.983397,-3.2153" /><path
       id="path60"
       style="fill:#004171;fill-opacity:1;fill-rule:nonzero;stroke:none"
       d="m 32.051908,2348.8555 35.944433,0 -1.240812,3.1975 -33.490092,0 -1.213529,-3.1975" /><path
       id="path62"
       style="fill:#004171;fill-opacity:1;fill-rule:nonzero;stroke:none"
       d="m 30.282622,2344.0555 39.523634,0 -1.240813,3.1995 -37.070477,0 -1.212344,-3.1995" /><path
       id="path64"
       style="fill:#004171;fill-opacity:1;fill-rule:nonzero;stroke:none"
       d="m 59.455668,2339.2557 12.161688,0 -1.241405,3.1995 -11.991759,0 1.071476,-3.1995" /><path
       id="path66"
       style="fill:#004171;fill-opacity:1;fill-rule:nonzero;stroke:none"
       d="m 73.425788,2334.4558 -1.239923,3.1993 -12.28061,0 1.055463,-3.1993 12.46507,0" /><path
       id="path68"
       style="fill:#004171;fill-opacity:1;fill-rule:nonzero;stroke:none"
       d="m 72.934979,2377.6555 11.61987,0 0,3.2003 -11.61987,0 0,-3.2003 z" /><path
       id="path70"
       style="fill:#004171;fill-opacity:1;fill-rule:nonzero;stroke:none"
       d="m 72.934979,2372.8555 11.61987,0 0,3.2 -11.61987,0 0,-3.2 z" /><path
       id="path72"
       style="fill:#004171;fill-opacity:1;fill-rule:nonzero;stroke:none"
       d="m 72.934979,2368.0555 11.61987,0 0,3.2002 -11.61987,0 0,-3.2002 z" /><path
       id="path74"
       style="fill:#004171;fill-opacity:1;fill-rule:nonzero;stroke:none"
       d="m 72.934979,2363.2555 11.61987,0 0,3.2 -11.61987,0 0,-3.2 z" /><path
       id="path76"
       style="fill:#004171;fill-opacity:1;fill-rule:nonzero;stroke:none"
       d="m 72.934979,2358.4555 11.61987,0 0,3.1885 -11.61987,0 0,-3.1885 z" /><path
       id="path78"
       style="fill:#004171;fill-opacity:1;fill-rule:nonzero;stroke:none"
       d="m 72.934979,2353.6555 11.61987,0 0,3.2149 -11.61987,0 0,-3.2149 z" /><path
       id="path80"
       style="fill:#004171;fill-opacity:1;fill-rule:nonzero;stroke:none"
       d="m 73.028099,2348.8555 11.74502,0 c -0.147094,0.829 -0.217676,1.7128 -0.217676,2.6457 l 0,0.5518 -11.620464,0 0,-1.505 c 0,-0.5892 0.04508,-1.1409 0.09312,-1.6925" /><path
       id="path82"
       style="fill:#004171;fill-opacity:1;fill-rule:nonzero;stroke:none"
       d="m 74.066658,2344.0555 13.25333,0 c -1.032033,0.8063 -1.732809,1.8988 -2.172015,3.1995 l -11.929778,0 c 0.19069,-1.1416 0.466194,-2.214 0.848463,-3.1995" /><path
       id="path84"
       style="fill:#004171;fill-opacity:1;fill-rule:nonzero;stroke:none"
       d="m 110.5108,2342.4581 -35.785776,0 c 0.623965,-1.1966 1.393839,-2.2573 2.268695,-3.2024 l 31.247491,0 c 0.87515,0.9451 1.6471,2.0058 2.26959,3.2024" /><path
       id="path86"
       style="fill:#004171;fill-opacity:1;fill-rule:nonzero;stroke:none"
       d="m 112.02,2347.255 -11.93215,0 c -0.440095,-1.3007 -1.147105,-2.3932 -2.184474,-3.1995 l 13.265794,0 c 0.38344,0.9855 0.65776,2.0579 0.85083,3.1995" /><path
       id="path88"
       style="fill:#004171;fill-opacity:1;fill-rule:nonzero;stroke:none"
       d="m 100.68157,2377.6555 11.62069,0 0,3.2003 -11.62069,0 0,-3.2003 z" /><path
       id="path90"
       style="fill:#004171;fill-opacity:1;fill-rule:nonzero;stroke:none"
       d="m 100.68157,2372.8555 11.62069,0 0,3.2 -11.62069,0 0,-3.2 z" /><path
       id="path92"
       style="fill:#004171;fill-opacity:1;fill-rule:nonzero;stroke:none"
       d="m 100.68157,2368.0555 11.62069,0 0,3.2002 -11.62069,0 0,-3.2002 z" /><path
       id="path94"
       style="fill:#004171;fill-opacity:1;fill-rule:nonzero;stroke:none"
       d="m 100.68157,2363.2555 11.62069,0 0,3.2 -11.62069,0 0,-3.2 z" /><path
       id="path96"
       style="fill:#004171;fill-opacity:1;fill-rule:nonzero;stroke:none"
       d="m 100.68157,2358.4555 11.62069,0 0,3.1885 -11.62069,0 0,-3.1885 z" /><path
       id="path98"
       style="fill:#004171;fill-opacity:1;fill-rule:nonzero;stroke:none"
       d="m 100.68157,2353.6555 11.62069,0 0,3.2149 -11.62069,0 0,-3.2149 z" /><path
       id="path100"
       style="fill:#004171;fill-opacity:1;fill-rule:nonzero;stroke:none"
       d="m 112.30232,2350.548 0,1.505 -11.62075,0 0,-0.5546 c 0,-0.9301 -0.0703,-1.8139 -0.21798,-2.6429 l 11.74472,0 c 0.0475,0.5516 0.0941,1.1033 0.0941,1.6925" /><path
       id="path102"
       style="fill:#004171;fill-opacity:1;fill-rule:nonzero;stroke:none"
       d="m 2.8177708,2356.8563 0,-3.2125 42.3848582,0 0.982508,3.2125 -43.3673662,0" /><path
       id="path104"
       style="fill:#004171;fill-opacity:1;fill-rule:nonzero;stroke:none"
       d="m 2.8177708,2361.6555 0,-3.1886 43.8187322,0 0.981915,3.1886 -44.8006472,0" /><g
       id="g978"
       transform="scale(0.162509,0.162509)"><g
         clip-path="url(#clipPath982)"
         id="g980" /></g></g></svg>