<?xml version="1.0" encoding="UTF-8" standalone="no"?>
<!-- Generator: Adobe Illustrator 19.0.0, SVG Export Plug-In . SVG Version: 6.00 Build 0)  -->

<svg
   xmlns:dc="http://purl.org/dc/elements/1.1/"
   xmlns:cc="http://creativecommons.org/ns#"
   xmlns:rdf="http://www.w3.org/1999/02/22-rdf-syntax-ns#"
   xmlns:svg="http://www.w3.org/2000/svg"
   xmlns="http://www.w3.org/2000/svg"
   xmlns:sodipodi="http://sodipodi.sourceforge.net/DTD/sodipodi-0.dtd"
   xmlns:inkscape="http://www.inkscape.org/namespaces/inkscape"
   version="1.1"
   id="Capa_1"
   x="0px"
   y="0px"
   viewBox="0 0 512 512"
   style="enable-background:new 0 0 512 512;"
   xml:space="preserve"
   sodipodi:docname="fablab_onoff_farbe.svg"
   inkscape:version="0.92.1 r15371"
   inkscape:export-filename="C:\Users\user\Dropbox\FabLab\Logo\fablab_onoff_farbe.png"
   inkscape:export-xdpi="500"
   inkscape:export-ydpi="500"><metadata
     id="metadata55"><rdf:RDF><cc:Work
         rdf:about=""><dc:format>image/svg+xml</dc:format><dc:type
           rdf:resource="http://purl.org/dc/dcmitype/StillImage" /><dc:title /></cc:Work></rdf:RDF></metadata><defs
     id="defs53" /><sodipodi:namedview
     pagecolor="#ffffff"
     bordercolor="#666666"
     borderopacity="1"
     objecttolerance="10"
     gridtolerance="10"
     guidetolerance="10"
     inkscape:pageopacity="0"
     inkscape:pageshadow="2"
     inkscape:window-width="1366"
     inkscape:window-height="715"
     id="namedview51"
     showgrid="false"
     inkscape:zoom="1.0703125"
     inkscape:cx="256"
     inkscape:cy="256"
     inkscape:window-x="-8"
     inkscape:window-y="-8"
     inkscape:window-maximized="1"
     inkscape:current-layer="Capa_1" /><rect
     style="fill:#ffffff;fill-opacity:1;stroke:none;stroke-width:5;stroke-linecap:round;stroke-linejoin:miter;stroke-miterlimit:4;stroke-dasharray:none;stroke-opacity:1"
     id="rect4505"
     width="512"
     height="512"
     x="0"
     y="0" /><g
     id="g6"
     transform="matrix(0.87890625,0,0,0.87890625,31,31)"
     style="fill:#1e3d67;fill-opacity:1"><g
       id="g4"
       style="fill:#1e3d67;fill-opacity:1"><path
         inkscape:connector-curvature="0"
         d="m 366.473,172.549 c -8.552,-9.598 -23.262,-10.44 -32.858,-1.888 -9.595,8.552 -10.44,23.263 -1.887,32.858 16.556,18.576 25.676,42.527 25.676,67.443 -0.002,55.913 -45.49,101.402 -101.404,101.402 -55.914,0 -101.402,-45.489 -101.402,-101.402 0,-24.913 9.118,-48.863 25.678,-67.443 8.552,-9.595 7.705,-24.308 -1.89,-32.86 -9.596,-8.552 -24.306,-7.705 -32.858,1.89 -24.166,27.116 -37.474,62.065 -37.474,98.413 -0.002,81.578 66.367,147.947 147.946,147.947 81.579,0 147.948,-66.369 147.948,-147.948 0,-36.35 -13.309,-71.3 -37.475,-98.412 z"
         id="path2"
         style="fill:#1e3d67;fill-opacity:1" /></g></g><g
     id="g12"
     transform="matrix(0.87890625,0,0,0.87890625,31,31)"
     style="fill:#c62032;fill-opacity:1"><g
       id="g10"
       style="fill:#c62032;fill-opacity:1"><path
         inkscape:connector-curvature="0"
         d="m 256,93.091 c -12.853,0 -23.273,10.42 -23.273,23.273 v 99.739 c 0,12.853 10.42,23.273 23.273,23.273 12.853,0 23.273,-10.42 23.273,-23.273 v -99.739 c 0,-12.853 -10.42,-23.273 -23.273,-23.273 z"
         id="path8"
         style="fill:#c62032;fill-opacity:1" /></g></g><g
     id="g18"
     transform="matrix(0.87890625,0,0,0.87890625,31,31)"
     style="fill:#389e6b;fill-opacity:1"><g
       id="g16"
       style="fill:#389e6b;fill-opacity:1"><path
         inkscape:connector-curvature="0"
         d="M 256,0 C 114.842,0 0,114.842 0,256 0,397.158 114.842,512 256,512 397.16,512 512,397.158 512,256 512,114.842 397.16,0 256,0 Z m 0,465.455 C 140.507,465.455 46.545,371.494 46.545,256 46.545,140.506 140.507,46.545 256,46.545 c 115.493,0 209.455,93.962 209.455,209.455 0,115.493 -93.962,209.455 -209.455,209.455 z"
         id="path14"
         style="fill:#389e6b;fill-opacity:1" /></g></g><g
     id="g20" /><g
     id="g22" /><g
     id="g24" /><g
     id="g26" /><g
     id="g28" /><g
     id="g30" /><g
     id="g32" /><g
     id="g34" /><g
     id="g36" /><g
     id="g38" /><g
     id="g40" /><g
     id="g42" /><g
     id="g44" /><g
     id="g46" /><g
     id="g48" /></svg>