<?xml version="1.0" encoding="UTF-8" standalone="no"?>
<svg
   version="1.0"
   width="40mm"
   height="40mm"
   id="svg104"
   sodipodi:docname="logo_fabcube_international.svg"
   inkscape:export-filename="fabcube_international.png"
   inkscape:export-xdpi="200"
   inkscape:export-ydpi="200"
   inkscape:version="1.2.1 (9c6d41e410, 2022-07-14)"
   xmlns:inkscape="http://www.inkscape.org/namespaces/inkscape"
   xmlns:sodipodi="http://sodipodi.sourceforge.net/DTD/sodipodi-0.dtd"
   xmlns="http://www.w3.org/2000/svg"
   xmlns:svg="http://www.w3.org/2000/svg"
   xmlns:rdf="http://www.w3.org/1999/02/22-rdf-syntax-ns#"
   xmlns:cc="http://creativecommons.org/ns#"
   xmlns:dc="http://purl.org/dc/elements/1.1/">
  <metadata
     id="metadata110">
    <rdf:RDF>
      <cc:Work
         rdf:about="">
        <dc:format>image/svg+xml</dc:format>
        <dc:type
           rdf:resource="http://purl.org/dc/dcmitype/StillImage" />
      </cc:Work>
    </rdf:RDF>
  </metadata>
  <defs
     id="defs108" />
  <sodipodi:namedview
     pagecolor="#ffffff"
     bordercolor="#666666"
     borderopacity="1"
     objecttolerance="10"
     gridtolerance="10"
     guidetolerance="10"
     inkscape:pageopacity="0"
     inkscape:pageshadow="2"
     inkscape:window-width="1366"
     inkscape:window-height="715"
     id="namedview106"
     showgrid="false"
     showguides="false"
     inkscape:guide-bbox="true"
     inkscape:zoom="3.3866667"
     inkscape:cx="68.799212"
     inkscape:cy="75.885826"
     inkscape:window-x="-8"
     inkscape:window-y="-8"
     inkscape:window-maximized="1"
     inkscape:current-layer="svg104"
     inkscape:document-rotation="0"
     inkscape:showpageshadow="2"
     inkscape:pagecheckerboard="0"
     inkscape:deskcolor="#d1d1d1"
     inkscape:document-units="mm">
    <sodipodi:guide
       position="450.869,48.113603"
       orientation="0,-1"
       id="guide234"
       inkscape:locked="false" />
    <sodipodi:guide
       position="425.09,116.4816"
       orientation="0,-1"
       id="guide236"
       inkscape:locked="false" />
    <sodipodi:guide
       position="205.1154,-4.5787994"
       orientation="1,0"
       id="guide238"
       inkscape:locked="false" />
  </sodipodi:namedview>
  <rect
     style="fill:#009edb;fill-opacity:1;stroke:none;stroke-width:0.377954"
     id="rect3089"
     width="151.18111"
     height="151.18111"
     x="0"
     y="0" />
  <g
     id="g3201"
     transform="matrix(0.97700079,0,0,0.9772827,0.43463078,0.42930327)"
     style="stroke-width:1.02339">
    <path
       style="fill:#ffffff;fill-opacity:1;stroke:none;stroke-width:1.03537"
       d="m 75.02734,129.09185 c 0,0 -11.97229,-6.9115 -11.97229,-6.9115 0,0 0,-13.60381 0,-13.60381 0.42744,-0.17207 0.84243,-0.36827 1.24691,-0.60535 6.57397,-3.82129 7.26419,-14.913391 1.53303,-24.780781 -5.72999,-9.86311 -15.70716,-14.76586 -22.28387,-10.94729 -6.57864,3.81818 -7.26613,14.91612 -1.53458,24.78234 0.84398,1.4505 1.77906,2.79045 2.77993,4.012831 0,0 0,10.60392 0,10.60392 0,0 -13.92965,-8.0416 -13.92965,-8.0416 0,0 0,-51.029201 0,-51.029201 0,0 -5.10167,-2.94538 -5.10167,-2.94538 -4.35813,8.14632 -6.86751,17.42861 -6.86751,27.31118 0,31.408091 24.9622,56.975241 56.1297,57.981951 0,0 0,-5.82731 0,-5.82731 z"
       id="path96" />
    <path
       style="fill:#ffffff;fill-opacity:1;stroke:none;stroke-width:1.03537"
       d="m 128.09409,49.644319 c 0,0 -5.11218,2.95317 -5.11218,2.95317 0,0 0,16.14044 0,16.14044 0,0 -9.6015,5.44698 -9.6015,5.44698 -0.69956,-0.81518 -1.51318,-1.51473 -2.45449,-2.06208 -6.57709,-3.81973 -16.55699,1.08262 -22.28698,10.94573 -5.72687,9.86778 -5.04406,20.961051 1.53109,24.782341 6.58021,3.81857 16.55582,-1.08107 22.28698,-10.947291 1.23794,-2.13176 2.17614,-4.31841 2.81808,-6.48093 0,0 7.70682,-4.46324 7.70682,-4.46324 0,0 0,17.641171 0,17.641171 0,0 -44.0815,25.44997 -44.0815,25.44997 0,0 0,5.86547 0,5.86547 31.13442,-1.04331 56.05223,-26.59528 56.05223,-57.978841 0,-9.87673 -2.5047,-19.15435 -6.85855,-27.29289 z"
       id="path98" />
    <path
       style="fill:#ffffff;fill-opacity:1;stroke:none;stroke-width:1.03537"
       d="m 27.78268,46.264939 c 0,0 5.11361,2.9507 5.11361,2.9507 0,0 13.97803,-8.07022 13.97803,-8.07022 0,0 9.51797,5.59166 9.51797,5.59166 -0.35618,1.01342 -0.55521,2.06781 -0.55857,3.15668 -0.0194,7.6058 9.21607,13.79746 20.62276,13.82822 11.40919,0.0257 20.67484,-6.11223 20.6966,-13.71712 0.0169,-7.60791 -9.21414,-13.79723 -20.62412,-13.82745 -2.46513,-0.006 -4.82793,0.27462 -7.02169,0.79994 0,0 -7.71869,-4.44268 -7.71869,-4.44268 0,0 15.2777,-8.82059 15.2777,-8.82059 0,0 44.08107,25.45071 44.08107,25.45071 0,0 5.07964,-2.93273 5.07964,-2.93273 -16.47073,-26.44155 -51.05829,-35.24502 -78.23726,-19.55324 -8.5535,4.93837 -15.33579,11.74631 -20.20705,19.58612 z"
       id="path100" />
  </g>
</svg>
