<?xml version="1.0" encoding="UTF-8" standalone="no"?>
<!-- Generator: Adobe Illustrator 18.1.1, SVG Export Plug-In . SVG Version: 6.00 Build 0)  -->

<svg
   xmlns:dc="http://purl.org/dc/elements/1.1/"
   xmlns:cc="http://creativecommons.org/ns#"
   xmlns:rdf="http://www.w3.org/1999/02/22-rdf-syntax-ns#"
   xmlns:svg="http://www.w3.org/2000/svg"
   xmlns="http://www.w3.org/2000/svg"
   xmlns:sodipodi="http://sodipodi.sourceforge.net/DTD/sodipodi-0.dtd"
   xmlns:inkscape="http://www.inkscape.org/namespaces/inkscape"
   version="1.1"
   id="Capa_1"
   x="0px"
   y="0px"
   viewBox="0 0 19.25 19.25"
   style="enable-background:new 0 0 19.25 19.25;"
   xml:space="preserve"
   sodipodi:docname="shopping-cart.svg"
   inkscape:version="0.92.1 r15371"
   inkscape:export-filename="C:\Users\user\Dropbox\FabLab\Logo\shopping-cart.png"
   inkscape:export-xdpi="4987.0049"
   inkscape:export-ydpi="4987.0049"><metadata
     id="metadata48"><rdf:RDF><cc:Work
         rdf:about=""><dc:format>image/svg+xml</dc:format><dc:type
           rdf:resource="http://purl.org/dc/dcmitype/StillImage" /></cc:Work></rdf:RDF></metadata><defs
     id="defs46" /><sodipodi:namedview
     pagecolor="#ffffff"
     bordercolor="#666666"
     borderopacity="1"
     objecttolerance="10"
     gridtolerance="10"
     guidetolerance="10"
     inkscape:pageopacity="0"
     inkscape:pageshadow="2"
     inkscape:window-width="1366"
     inkscape:window-height="715"
     id="namedview44"
     showgrid="false"
     inkscape:zoom="2.1672364"
     inkscape:cx="43.315742"
     inkscape:cy="7.0604302"
     inkscape:window-x="-8"
     inkscape:window-y="-8"
     inkscape:window-maximized="1"
     inkscape:current-layer="Capa_1" /><rect
     style="fill:#ffffff;fill-opacity:1;stroke:none;stroke-width:1;stroke-linecap:butt;stroke-miterlimit:4;stroke-dasharray:none;stroke-dashoffset:0;stroke-opacity:1;paint-order:markers stroke fill"
     id="rect4516"
     width="94.48819"
     height="94.48819"
     x="-101.97319"
     y="-72.110596" /><g
     id="g13" /><g
     id="g15" /><g
     id="g17" /><g
     id="g19" /><g
     id="g21" /><g
     id="g23" /><g
     id="g25" /><g
     id="g27" /><g
     id="g29" /><g
     id="g31" /><g
     id="g33" /><g
     id="g35" /><g
     id="g37" /><g
     id="g39" /><g
     id="g41" /><g
     id="g4514"
     transform="matrix(4.1994751,0,0,4.1994751,-95.149107,-65.286449)"><g
       style="fill:#646464;fill-opacity:1"
       id="Layer_1_107_"><g
         style="fill:#646464;fill-opacity:1"
         id="g8"><path
           sodipodi:nodetypes="csccssssccccccccssssccsccc"
           style="fill:#646464;fill-opacity:1"
           d="M 19.006,2.97 C 18.815,2.751 18.54,2.625 18.25,2.625 H 4.431 L 4.236,1.461 C 4.156,0.979 3.739,0.625 3.25,0.625 H 1 c -0.553,0 -1,0.447 -1,1 0,0.553 0.447,1 1,1 h 1.403 l 1.86,11.164 c 0.008,0.045 0.031,0.082 0.045,0.124 0.016,0.053 0.029,0.103 0.054,0.151 0.032,0.066 0.075,0.122 0.12,0.179 0.031,0.039 0.059,0.078 0.095,0.112 0.058,0.054 0.125,0.092 0.193,0.13 0.038,0.021 0.071,0.049 0.112,0.065 0.116,0.047 0.238,0.075 0.367,0.075 H 16.25 c 0.553,0 1,-0.447 1,-1 0,-0.553 -0.447,-1 -1,-1 H 6.097 l -0.166,-1 H 17.25 c 0.498,0 0.92,-0.366 0.99,-0.858 l 1,-7 C 19.281,3.479 19.195,3.188 19.006,2.97 Z"
           id="path2"
           inkscape:connector-curvature="0" /><circle
           style="fill:#646464;fill-opacity:1"
           cx="6.75"
           cy="17.125"
           r="1.5"
           id="circle4" /><circle
           style="fill:#646464;fill-opacity:1"
           cx="15.75"
           cy="17.125"
           r="1.5"
           id="circle6" /></g></g><g
       id="g4535"
       transform="matrix(0.06955968,0,0,-0.06955968,-8.1493114,11.890055)"><path
         inkscape:connector-curvature="0"
         id="path162"
         style="fill:#389e6b;fill-opacity:1;fill-rule:nonzero;stroke:none"
         d="m 273.4966,18.1611 -11.973,6.911 v 13.605 c 0.428,0.172 0.843,0.367 1.247,0.604 6.574,3.822 7.265,14.914 1.533,24.781 -5.729,9.864 -15.707,14.766 -22.284,10.948 -6.578,-3.819 -7.266,-14.916 -1.534,-24.783 0.844,-1.451 1.779,-2.79 2.78,-4.012 v -10.605 l -13.93,8.042 v 51.03 l -5.102,2.945 c -4.358,-8.147 -6.867,-17.429 -6.867,-27.312 0,-31.408 24.962,-56.974 56.13,-57.981 z" /><path
         inkscape:connector-curvature="0"
         id="path166"
         style="fill:#1e3d67;fill-opacity:1;fill-rule:nonzero;stroke:none"
         d="m 326.563,97.6089 -5.112,-2.954 v -16.14 l -9.601,-5.447 c -0.7,0.815 -1.514,1.515 -2.455,2.062 -6.577,3.82 -16.557,-1.083 -22.287,-10.945 -5.727,-9.868 -5.044,-20.961 1.531,-24.784 6.58,-3.818 16.556,1.083 22.287,10.949 1.238,2.131 2.176,4.318 2.818,6.48 l 7.707,4.463 v -17.641 l -44.081,-25.45 v -5.865 c 31.134,1.043 56.052,26.595 56.052,57.979 0,9.876 -2.505,19.154 -6.859,27.293" /><path
         inkscape:connector-curvature="0"
         id="path170"
         style="fill:#c62032;fill-opacity:1;fill-rule:nonzero;stroke:none"
         d="m 231.3462,97.9946 13.746,7.935 8.809,-5.102 c -0.315,-0.956 -0.484,-1.949 -0.484,-2.969 0,-7.605 9.247,-13.77 20.658,-13.77 11.409,0 20.658,6.165 20.658,13.77 0,7.609 -9.249,13.771 -20.658,13.771 -2.545,0 -4.982,-0.307 -7.235,-0.87 l -6.745,3.832 15.302,8.832 44.07,-25.441 c 1.906,1.101 3.643,2.105 5.157,2.979 -10.244,16.425 -28.438,27.38 -49.227,27.38 -20.781,0 -38.973,-10.948 -49.221,-27.365 1.555,-0.897 3.288,-1.895 5.17,-2.982" /></g></g></svg>